<mxfile host="app.diagrams.net" modified="2022-10-09T14:22:26.658Z" agent="5.0 (Macintosh; Intel Mac OS X 10_15_7) AppleWebKit/537.36 (KHTML, like Gecko) Chrome/104.0.0.0 Safari/537.36" etag="tyT_Aqfp-UuEEWUlF93u" version="20.3.7" type="github">
  <diagram id="m3HherbHzcMNVeB3z6U7" name="第 1 页">
    <mxGraphModel dx="1402" dy="782" grid="1" gridSize="10" guides="1" tooltips="1" connect="1" arrows="1" fold="1" page="1" pageScale="1" pageWidth="1169" pageHeight="1654" math="0" shadow="0">
      <root>
        <mxCell id="0" />
        <mxCell id="1" parent="0" />
        <mxCell id="xaDziA7lkqw0EgUasQYE-2" value="&lt;font style=&quot;font-size: 16px;&quot;&gt;E=Yes&lt;/font&gt;" style="rounded=0;whiteSpace=wrap;html=1;" vertex="1" parent="1">
          <mxGeometry x="220" y="170" width="100" height="30" as="geometry" />
        </mxCell>
        <mxCell id="xaDziA7lkqw0EgUasQYE-3" value="&lt;font style=&quot;font-size: 16px;&quot;&gt;0.7&lt;/font&gt;" style="rounded=0;whiteSpace=wrap;html=1;" vertex="1" parent="1">
          <mxGeometry x="220" y="200" width="100" height="30" as="geometry" />
        </mxCell>
        <mxCell id="xaDziA7lkqw0EgUasQYE-6" value="&lt;font style=&quot;font-size: 16px;&quot;&gt;D=健康&lt;/font&gt;" style="rounded=0;whiteSpace=wrap;html=1;" vertex="1" parent="1">
          <mxGeometry x="750" y="170" width="140" height="30" as="geometry" />
        </mxCell>
        <mxCell id="xaDziA7lkqw0EgUasQYE-7" value="&lt;font style=&quot;font-size: 16px;&quot;&gt;0.25&lt;/font&gt;" style="rounded=0;whiteSpace=wrap;html=1;" vertex="1" parent="1">
          <mxGeometry x="750" y="200" width="140" height="30" as="geometry" />
        </mxCell>
        <mxCell id="xaDziA7lkqw0EgUasQYE-8" value="&lt;font style=&quot;font-size: 20px;&quot;&gt;锻炼&lt;/font&gt;" style="ellipse;whiteSpace=wrap;html=1;fontSize=16;" vertex="1" parent="1">
          <mxGeometry x="210" y="290" width="120" height="80" as="geometry" />
        </mxCell>
        <mxCell id="xaDziA7lkqw0EgUasQYE-9" value="&lt;font style=&quot;font-size: 20px;&quot;&gt;饮食&lt;/font&gt;" style="ellipse;whiteSpace=wrap;html=1;fontSize=16;" vertex="1" parent="1">
          <mxGeometry x="760" y="290" width="120" height="80" as="geometry" />
        </mxCell>
        <mxCell id="xaDziA7lkqw0EgUasQYE-10" value="Text" style="text;html=1;strokeColor=none;fillColor=none;align=center;verticalAlign=middle;whiteSpace=wrap;rounded=0;fontSize=16;" vertex="1" parent="1">
          <mxGeometry x="570" y="450" width="60" height="30" as="geometry" />
        </mxCell>
        <mxCell id="xaDziA7lkqw0EgUasQYE-11" value="Text" style="text;html=1;strokeColor=none;fillColor=none;align=center;verticalAlign=middle;whiteSpace=wrap;rounded=0;fontSize=16;" vertex="1" parent="1">
          <mxGeometry x="570" y="450" width="60" height="30" as="geometry" />
        </mxCell>
        <mxCell id="xaDziA7lkqw0EgUasQYE-12" value="感冒" style="ellipse;whiteSpace=wrap;html=1;fontSize=20;" vertex="1" parent="1">
          <mxGeometry x="500" y="425" width="120" height="80" as="geometry" />
        </mxCell>
        <mxCell id="xaDziA7lkqw0EgUasQYE-16" value="" style="endArrow=classic;html=1;rounded=0;strokeWidth=3;fontSize=20;exitX=0.5;exitY=1;exitDx=0;exitDy=0;" edge="1" parent="1" source="xaDziA7lkqw0EgUasQYE-8" target="xaDziA7lkqw0EgUasQYE-12">
          <mxGeometry width="50" height="50" relative="1" as="geometry">
            <mxPoint x="580" y="480" as="sourcePoint" />
            <mxPoint x="630" y="430" as="targetPoint" />
            <Array as="points">
              <mxPoint x="490" y="450" />
            </Array>
          </mxGeometry>
        </mxCell>
        <mxCell id="xaDziA7lkqw0EgUasQYE-17" value="" style="endArrow=classic;html=1;rounded=0;strokeWidth=3;fontSize=20;exitX=0.5;exitY=1;exitDx=0;exitDy=0;entryX=1.025;entryY=0.4;entryDx=0;entryDy=0;entryPerimeter=0;" edge="1" parent="1" target="xaDziA7lkqw0EgUasQYE-12">
          <mxGeometry width="50" height="50" relative="1" as="geometry">
            <mxPoint x="810" y="367.24" as="sourcePoint" />
            <mxPoint x="990" y="500" as="targetPoint" />
            <Array as="points" />
          </mxGeometry>
        </mxCell>
        <mxCell id="xaDziA7lkqw0EgUasQYE-35" value="" style="rounded=0;whiteSpace=wrap;html=1;fontSize=20;" vertex="1" parent="1">
          <mxGeometry x="180" y="550" width="120" height="30" as="geometry" />
        </mxCell>
        <mxCell id="xaDziA7lkqw0EgUasQYE-36" value="感冒=yes" style="rounded=0;whiteSpace=wrap;html=1;fontSize=20;" vertex="1" parent="1">
          <mxGeometry x="300" y="550" width="90" height="30" as="geometry" />
        </mxCell>
        <mxCell id="xaDziA7lkqw0EgUasQYE-37" value="E=Yes&lt;br&gt;D=健康" style="rounded=0;whiteSpace=wrap;html=1;fontSize=20;align=left;" vertex="1" parent="1">
          <mxGeometry x="180" y="580" width="120" height="50" as="geometry" />
        </mxCell>
        <mxCell id="xaDziA7lkqw0EgUasQYE-38" value="E=Yes&lt;br&gt;D=不健康" style="rounded=0;whiteSpace=wrap;html=1;fontSize=20;align=left;" vertex="1" parent="1">
          <mxGeometry x="180" y="630" width="120" height="50" as="geometry" />
        </mxCell>
        <mxCell id="xaDziA7lkqw0EgUasQYE-39" value="E=No&lt;br&gt;D=健康" style="rounded=0;whiteSpace=wrap;html=1;fontSize=20;align=left;" vertex="1" parent="1">
          <mxGeometry x="180" y="680" width="120" height="50" as="geometry" />
        </mxCell>
        <mxCell id="xaDziA7lkqw0EgUasQYE-40" value="E=No&lt;br&gt;&lt;div style=&quot;&quot;&gt;&lt;span style=&quot;background-color: initial;&quot;&gt;D=不健康&lt;/span&gt;&lt;/div&gt;" style="rounded=0;whiteSpace=wrap;html=1;fontSize=20;align=left;" vertex="1" parent="1">
          <mxGeometry x="180" y="730" width="120" height="50" as="geometry" />
        </mxCell>
        <mxCell id="xaDziA7lkqw0EgUasQYE-41" value="0.25&amp;nbsp;" style="rounded=0;whiteSpace=wrap;html=1;fontSize=20;" vertex="1" parent="1">
          <mxGeometry x="300" y="580" width="90" height="50" as="geometry" />
        </mxCell>
        <mxCell id="xaDziA7lkqw0EgUasQYE-42" value="0.45" style="rounded=0;whiteSpace=wrap;html=1;fontSize=20;" vertex="1" parent="1">
          <mxGeometry x="300" y="630" width="90" height="50" as="geometry" />
        </mxCell>
        <mxCell id="xaDziA7lkqw0EgUasQYE-43" value="0.55" style="rounded=0;whiteSpace=wrap;html=1;fontSize=20;" vertex="1" parent="1">
          <mxGeometry x="300" y="680" width="90" height="50" as="geometry" />
        </mxCell>
        <mxCell id="xaDziA7lkqw0EgUasQYE-44" value="0.75" style="rounded=0;whiteSpace=wrap;html=1;fontSize=20;" vertex="1" parent="1">
          <mxGeometry x="300" y="730" width="90" height="50" as="geometry" />
        </mxCell>
        <mxCell id="xaDziA7lkqw0EgUasQYE-48" value="" style="shape=image;verticalLabelPosition=bottom;labelBackgroundColor=default;verticalAlign=top;aspect=fixed;imageAspect=0;image=data:image/png,iVBORw0KGgoAAAANSUhEUgAABL4AAAFoCAYAAABZvTKZAAAKC2lDQ1BJQ0MgUHJvZmlsZQAASImFlndYE+kWxr+Z9EZJQgSkt1CktwDSe1GQDqISEgg1hkAAARWVRQXXgogIKoKuUhRcCyCLiohiYRFQwL5BFgHlulgQBTV3wC3u3vvce+Y5z/d7zpzvnTPf/DEvACQ/tkCQDMsAkMJPFwZ6uqiFR0Sq4UYBhFwUQAUqbE6awDkgwA8g8cf693g/iPQicddwXus/7//PkOXGpnEAgAIQZnEEwnSEtyEcnJkumOfHCNOFyFAIT80zb4Fh9DzHfGX5hZ7gQFeElwCAJ7PZQh4ARBZSV8vg8BAdYjjCJnxuAh/heX0HTjybi/ANhJfEJYuyEH4335OSshapk7QQ1o35RpP3N/2YP/XZbN6fnJIs4vz+XvMnQo7lhwQhqyKSSiAOGIFkIAJZQA0IgBCsRSoJSCUWOfv/vo+1sM8V6RSAdciOBMAD8SAd2e/xjVbQglI6yARspCcWqfghl+v8d/wq+ZaxoAoxbv1V20IEwJ4vkUja/qr5zgJwTh15F/FfNWY/AFICAG7s4YiEGV9r80cPMIAIpAEdKAAVoAl0gSEwA1bADjgBd+AD/EEwiACrAQeZNwWZKhPkgk2gABSB3WAfKAeV4CioAafAGdAM2sAVcB3cBr1gADwCYjAKXoIp8B7MQRCEgygQDVKAVCFtyAAyg1iQA+QO+UGBUAQUDfEgPiSCcqEtUBFUDJVDVVAt9CN0AboC3YT6oAfQMDQBvYFmYRRMhumwMqwDG8Ms2Bn2hYPhVTAPToWz4Xx4J1wGV8Mn4Sb4CnwbHoDF8Et4GgVQJBQDpY4yRLFQrih/VCQqDiVEbUAVokpR1agGVCuqC3UXJUZNoj6isWgaWg1tiLZDe6FD0Bx0KnoDege6HF2DbkJ3ou+ih9FT6C8YCkYJY4CxxXhjwjE8TCamAFOKOY45j7mGGcCMYt5jsVgGlom1xnphI7CJ2BzsDuwhbCO2HduHHcFO43A4BZwBzh7nj2Pj0nEFuAO4k7jLuH7cKO4DnoRXxZvhPfCReD5+M74UX4e/hO/Hj+HnCDIEbYItwZ/AJawj7CIcI7QS7hBGCXNEWSKTaE8MJiYSNxHLiA3Ea8THxLckEkmDZENaQUog5ZHKSKdJN0jDpI9kKlmf7EqOIovIO8knyO3kB+S3FApFh+JEiaSkU3ZSailXKU8pH6RoUkZS3lJcqY1SFVJNUv1Sr6QJ0trSztKrpbOlS6XPSt+RnpQhyOjIuMqwZTbIVMhckBmSmZalyZrK+sumyO6QrZO9KTtOxVF1qO5ULjWfepR6lTpCQ9E0aa40Dm0L7RjtGm2UjqUz6d70RHoR/RS9hz4lR5WzkAuVy5KrkLsoJ2agGDoMb0YyYxfjDGOQMbtIeZHzothF2xc1LOpfNCO/WN5JPla+UL5RfkB+VkFNwV0hSWGPQrPCE0W0or7iCsVMxcOK1xQnF9MX2y3mLC5cfGbxQyVYSV8pUClH6ahSt9K0soqyp7JA+YDyVeVJFYaKk0qiSonKJZUJVZqqg2qCaonqZdUXanJqzmrJamVqnWpT6krqXuoi9Sr1HvU5DaZGiMZmjUaNJ5pETZZmnGaJZofmlJaq1jKtXK16rYfaBG2Wdrz2fu0u7Rkdpk6YzladZp1xpjzTm5nNrGc+1qXoOuqm6lbr3tPD6rH0kvQO6fXqw/qW+vH6Ffp3DGADK4MEg0MGfUswS2yW8JdULxkyJBs6G2YY1hsOGzGM/Iw2GzUbvTLWMo403mPcZfzFxNIk2eSYySNTqqmP6WbTVtM3ZvpmHLMKs3vmFHMP843mLeavLQwsYi0OW9y3pFkus9xq2WH52craSmjVYDVhrWUdbX3QeohFZwWwdrBu2GBsXGw22rTZfLS1sk23PWP7m52hXZJdnd34UubS2KXHlo7Ya9iz7avsxQ5qDtEORxzEjuqObMdqx2dOmk5cp+NOY856zonOJ51fuZi4CF3Ou8y42rqud213Q7l5uhW69bhT3UPcy92femh48DzqPaY8LT1zPNu9MF6+Xnu8hryVvTnetd5TPtY+6306fcm+Qb7lvs/89P2Efq3L4GU+y/Yue7xcezl/ebM/8Pf23+v/JIAZkBrw0wrsioAVFSueB5oG5gZ2BdGC1gTVBb0PdgneFfwoRDdEFNIRKh0aFVobOhPmFlYcJg43Dl8ffjtCMSIhoiUSFxkaeTxyeqX7yn0rR6MsowqiBlcxV2WturlacXXy6otrpNew15yNxkSHRddFf2L7s6vZ0zHeMQdjpjiunP2cl1wnbgl3ItY+tjh2LM4+rjhunGfP28ubiHeML42fTHBNKE94neiVWJk4k+SfdCJJkhyW3JiCT4lOucCn8pP4nWtV1mat7RMYCAoE4lTb1H2pU0Jf4fE0KG1VWks6Hfl5dot0Rd+JhjMcMioyPmSGZp7Nks3iZ3Wv01+3fd1Ytkf2DznoHE5OR6567qbc4fXO66s2QBtiNnRs1NyYv3E0zzOvZhNxU9KmnzebbC7e/G5L2JbWfOX8vPyR7zy/qy+QKhAWDG2121q5Db0tYVvPdvPtB7Z/KeQW3ioyKSot+rSDs+PW96bfl30v2Rm3s2eX1a7Du7G7+bsH9zjuqSmWLc4uHtm7bG9TiVpJYcm7fWv23Sy1KK3cT9wv2i8u8ytrOaB1YPeBT+Xx5QMVLhWNB5UObj84c4h7qP+w0+GGSuXKosrZIwlH7ld5VjVV61SXHsUezTj6/Fjosa4fWD/UHlc8XnT88wn+CXFNYE1nrXVtbZ1S3a56uF5UP3Ey6mTvKbdTLQ2GDVWNjMai0+C06PSLH6N/HDzje6bjLOtswzntcwfP084XNkFN65qmmuObxS0RLX0XfC50tNq1nv/J6KcTbeptFRflLu66RLyUf0lyOfvydLugffIK78pIx5qOR1fDr97rXNHZc8332o3rHtevdjl3Xb5hf6Ptpu3NC7dYt5pvW91u6rbsPv+z5c/ne6x6mu5Y32nptelt7Vvad6nfsf/KXbe71+9537s9sHygbzBk8P5Q1JD4Pvf++IPkB68fZjyce5T3GPO48InMk9KnSk+rf9H7pVFsJb447Dbc/Szo2aMRzsjLX9N+/TSa/5zyvHRMdax23Gy8bcJjovfFyhejLwUv5yYL/iX7r4OvdF+d+83pt+6p8KnR18LXkjc73iq8PfHO4l3HdMD00/cp7+dmCj8ofKj5yPrYNRs2OzaX+Qn3qeyz3ufWL75fHktSJBIBW8hesAIoJOG4OADenACAEgEArRfxDyu/eq7f/Qz0jbP5g4Ek5xvu+OrLFsIKgAZkCUTStR2A00jq5CHaSM5bxGAnAJub/5m/R1qcudnXZ5CFiDX5IJG8VQYA1wrAZ6FEMndIIvl8DBn2AQDtqf93tn/wVz84H1jEJR9xmqcBeW4e+Ef8GxNZwFfxwRvFAAAAbGVYSWZNTQAqAAAACAAEARoABQAAAAEAAAA+ARsABQAAAAEAAABGASgAAwAAAAEAAgAAh2kABAAAAAEAAABOAAAAAAAAAJAAAAABAAAAkAAAAAEAAqACAAQAAAABAAAEvqADAAQAAAABAAABaAAAAACCIjbdAAAACXBIWXMAABYlAAAWJQFJUiTwAABAAElEQVR4AeydCfwG1fT/r+xE2aWSnZAl2dNClhZFsmXJUqn0tySKSgshUSKERKWiUBSV0GKrECpCpbJky74mmv95j98Z57nPPPPs32ee5/s5r9f3O/PMcufe98zcuffcc869QWGSJCIgAiIgAiIgAiIgAiIgAiIgAiIgAiIgAiKwYARWWLDyqDgiIAIiIAIiIAIiIAIiIAIiIAIiIAIiIAIiUBKQ4ksPggiIgAiIgAiIgAiIgAiIgAiIgAiIgAiIwEISkOJrIW+rCiUCIiACIiACIiACIiACIiACIiACIiACIiDFl54BERABERABERABERABERABERABERABERCBhSQgxddC3lYVSgREQAREQAREQAREQAREQAREQAREQAREQIovPQMiIAIiIAIiIAIiIAIiIAIiIAIiIAIiIAILSUCKr4W8rSqUCIiACIiACIiACIiACIiACIiACIiACIiAFF96BkRABERABERABERABERABERABERABERABBaSgBRfC3lbVSgREAEREAEREAEREAEREAEREAEREAEREAEpvvQMiIAIiIAIiIAIiIAIiIAIiIAIiIAIiIAILCQBKb4W8raqUCIgAiIgAiIgAiIgAiIgAiIgAiIgAiIgAlJ86RkQAREQAREQAREQAREQAREQAREQAREQARFYSAJSfC3kbVWhREAEREAEREAEREAEREAEREAEREAEREAEpPjSMyACIiACIiACIiACIiACIiACIiACIiACIrCQBKT4WsjbqkKJgAiIgAiIgAiIgAiIgAiIgAiIgAiIgAhI8aVnQAREQAREQAREQAREQAREQAREQAREQAREYCEJSPG1kLdVhRIBERABERABERABERABERABERABERABEZDiS8+ACIiACIiACIiACIiACIiACIiACIiACIjAQhKQ4mshb6sKJQIiIAIiIAIiIAIiIAIiIAIiIAIiIAIiIMWXngEREAEREAEREAEREAEREAEREAEREAEREIGFJCDF10LeVhVKBERABERABERABERABERABERABERABERAii89AyIgAiIgAiIgAiIgAiIgAiIgAiIgAiIgAgtJQIqvhbytKpQIiIAIiIAIiIAIiIAIiIAIiIAIiIAIiIAUX3oGREAEREAEREAEREAEREAEREAEREAEREAEFpKAFF8LeVtVKBEQAREQAREQAREQAREQAREQAREQAREQASm+9AyIgAiIgAiIgAiIgAiIgAiIgAiIgAiIgAgsJAEpvhbytqpQIiACIiACIiACIiACIiACIiACIiACIiACUnzpGRABERABERABERABERABERABERABERABEVhIAlJ8LeRtVaFEQAREQAREQAREQAREQAREQAREQAREQASk+NIzIAIiIAIiIAIiIAIiIAIiIAIiIAIiIAIisJAEpPhayNuqQomACIiACIiACIiACIiACIiACIiACIiACEjxpWdABERABERABERABERABERABERABERABERgIQlI8bWQt1WFEgEREAEREAEREAEREAEREAEREAEREAERkOJLz4AIiIAIiIAIiIAIiIAIiIAIiIAIiIAIiMBCEpDiayFvqwolAiIgAiIgAiIgAiIgAiIgAiIgAiIgAiIgxZeeAREQAREQAREQAREQAREQAREQAREQAREQgYUkcKOFLJUKJQLLkMBf/vKXtP/++6crrrgi3fzmN093u9vd0t3vfve02Wabpdvd7nbLkIiKLAIiIAIiIAIiIAIiIAIiIAIisNwJ3KAwWe4QVH4RmASBX/3qV+nOd77zJJIaKY3rr78+PfjBD04XX3xxx/krrbRS+uMf/9ixTT9EQAREQAREQAREQAQmQ+DUU08tBx3XX3/9dIMb3GAyiSqVZUHgN7/5TbryyivTLW5xi3LA+pa3vGVryk3/4SY3uUmZt9ZkShkRgREJyNVxRHA6TQScwH/+85+03Xbbpbvc5S7piCOO8M1LvlxhhRXSVltt1XXdv/3tbwml2HKUv//97+n8889PJ554Yvra176Wfv/73y9HDCrzEhDYdttt0yMf+cjy713vetcSXHH0S1AnHHTQQenss88ePZFldOaf//znRD0vEQEREIE6Av/+97/TJptskjbccMNScfGJT3yi7jBtE4FaAhtvvHHZdlhrrbXSiiuumB760IemI488MvFczVK+9a1vpdVWWy2tt9566Ze//OUss6Jri8BECMjiayIYlchyJXDttdemrbfeOn36058uEdz4xjdOX/jCF9IGG2wwEyR0zp70pCelL3/5y9X1b3/726ff/va31W9W3vKWt6RDDz003eY2t0l8aB/4wAeWy0c96lHpTne6U8ex8/TjX//6V/rud7+bvv71rydGX88888x03XXXVUW40Y1ulJ7ylKek3XbbLa277rrVdq2IwLgEeIe+//3vl8m89KUvTYcffvi4SU7t/O985ztp7bXXLtN/0YtelA455JB061vfemrXW6qE//CHP6RPfvKT5SDEE57whHSzm91s7EujJLztbW9bprX99tun17zmNTO17B27QEpABERg4gQYZMutdJ7xjGek4447LtEulDQToI1605vedKzvEBZT733ve9Mqq6ySHvawh6XHPvaxiTbfPMh+++2X9t57766s0p6nLcvA9lLLz3/+8/SIRzyiUnitvvrq6fTTT09rrrnmUmdF1xOBiRGQ4mtiKJXQciNATK2nPe1pHUomGNBJ+uEPf5jucIc7zATJ9773vfSQhzykujYfzH/+858dja8f/OAHCXP8a665pjqOFTq/H/3oR9PTn/70ju1t+oH1xU9/+tPyj4YOMc0uu+yy9OMf/zhdeumlHYquXvnGDWGnnXZKWObMS8OoV1m0vR0E5knxdcEFF5QdAydHPECUxCznWRh0ePKTn1wWgU4o61tuuWV67nOfO1bHgRiJbi2KMu3lL395OvDAA+XONM8Pi/LeagIMTqFMeuUrX5nuda97tTqvZO5HP/pRut/97teVz29/+9vVIEPXTm0oCRBxh7i0DNzusssuCSUQSrBhJQ7ocO7KK6+c9t133/SKV7xi2KSW/HjKziD68ccf33XtY489tvyGde2Y8oaHP/zhCYuvKHi2nHPOOeme97xn3Kx1EZgfAsT4koiACAxHwEaninXWWYf4eF1/ZupemHJmuAQnfPQTn/jEjnyZFVTXFQ444ICOY7ws1rErzJKt6/hJbXjd615X2ChWscceexRnnHFGYQrEKmkz6y5MmVVYJ7wwM+/iTW96U2FupIVZaRUPeMADClPM1ebZ854vTcHVePzuu+9eXVsrIjAOAZ5Pf/7M4mucpKZ+7imnnFLl1fP8qle9aqjr2sh6cZ/73KewDupU64thMmUu3YV1oLrKZp3nYZLpOtasYrvSPOaYY7qO0wYRWK4EzjvvvOIrX/lKwTd8EmIDUuU7ZwqQ4g1veENhlpeTSHZqaey1115ddYTFXJ3a9RYpYVP6dLDjW2oKl6GL+Kc//akw67qOtCxmVsF3YR6Ed8cssDvyz/fZBll6Zp9zzKuh5/5xduy8885deSE/a6yxRnHVVVeNk7TOFYGZEUgzu7IuLAJzSgCllll31H4Q6GBN6yM0DC6LadWRvw9/+MO1p5uLZmGWaR3H8mGjETstecELXtBxPZRTNopUWByBwhu73hnvt7QRvYLG5RZbbFHYqF7xzne+szBXp8LiehUWj6CgQfXrX/+6yBWBni7bJSIwCQLzpPg6+OCDO95B3geL+TUUBrMYrdKw2GaFWWEOdf60Dt50002rfPl7juJ8HKGh72n58qtf/eo4SepcEVgYAjaxT2GW5eU7QnvCXKfLb+84BbQwDB3vnM1QXZgr8zhJTu1cBgotRERHfr2esLATU7vuoiRsngdd7GgLfulLXxq6iGbl25EW7UsLgTF0OrM6ASXd2972tuLe9753VQ5zl62yY94bxWmnnVbQ1zDPjsKCzhco92gD0+6ftFjIhgLlsz/PvjQrzOLqq6+e9OWUnghMnYAUX1NHrAssEgEUKZtvvnnXR4CPtLkItqao//jHP4pb3epWVT5RNuVCI5IGAY3Wpz71qdWxfNjMlDk/fGK/6zrd/jHNl1h4uWKLD725JhYnnXRSgQWbzTQzcJ723HPPjvL5dT70oQ8NnIYOFIEmAvOk+MrrMIt3N5SlBlaa5krY8U7d8Y53LMwdsAnRkuyjHvb325evfvWrR742Axl5w9/ih42cnk4UgUUjQGfd3KQ73juLr1T87ne/G7moDIT5++vLt771rSOnN80T3/72t3fl1fNM2/Dd7373NC8/92mbm2gtv+c85zlDl+39739/R1ooaOZVLGZo8alPfapA8cU37DGPeUyBR4Y/W/nSYpsVP/nJTyZe3G984xu1A+T3v//9C7xfJCIwTwTmI+qfvd0SEWgDATNnT5/97Gc7ssI0v8zgQ7yvtghxaDbbbLMysCp5Ovnkk9MXv/jF0jffPmLlTIfEyjLlWBkHh4CgxMEhvhflwbd/WvLiF784mSIqETTahRg61sgpZ0Oykd0y1hBLgu/3E2IjEOtr1VVX7RnMmiCduRD8lMDektkSIN7cFRanjem8+SPWB5MUEKCWv/ve977lvZ1tLhfn6sT7oy5wId4dwe1veMMb+qa+y/3337/j/eUE7h0BiuveWesYJ+u0lvULMRCf//znl+8e9c+kxRSQXUkSz3BU4flkEpMolF/SXgKqU5b23lCHMFkG32EXZlEmTpcNLvmmgZfmvlXWJ/kJ1vHPN8389y9+8YsyJlXMCBPnfOxjH0tMsHH55ZeXMaaYdOd973vfSLGrYtqLuG7Ws7XFqqvLaw8MG83yqYzfah3xcuuDHvSgsHfpV+kvEK+MZ8GUoD0zQHv4oosuSsTo9b8LL7ww/fWvf+15Tr6DuMOXXHJJ2Y7O943zm0mvzjrrrLIMNlBeJUU9S/B97p9ZnVXbtSICbSbQ+y1sc66Vt6kSIJghnZRRhMpvpZVWqv7ufOc7JypNiwUzSnKtOgflFrMhRkHBxIyOTEXcJrFYBx2z45h1VDK3vq4s8qFkFrTHP/7xaccdd1ySAJo8H+TFLLeq/Fh8oVIZVm1oWKETzex5zC5jJt/J3DLLxgGdaGZR+shHPtJ1tsUe6dhGJx8lX1NDpOOEGfxAobfNNtsks97re3Wztkk2qtwxgUHfk7IDTjjhhPTxj38829r8kxlDP/CBDzQflO3l/n3mM58plbEEI6fj0E8snl454cKznvWsuQh03K88s9xv7iNl0GjPw1ZbbTVU8GVmTDW3SD+9XKKsZLZDlNVRuNcEwt1nn33S2WefXe0yV+TyfecdnPREGuYiUl2HFb5JzOQ6qhCcOgp1pbl2xk1zs6465X+3SnXK/1hMYm3FFVfsSob2xSjCRDUMfkRhkGq99daLm1qxTjD2qJygfYPSy9yjy4mPULqjEDziiCMSigLaiwzoSP5H4Oijj/7fj/9bQ4H1+te/vmt7vw2wZXDFrA3LQ2c1yRQXp91NORDyweAu/SEmkSJ/TMrERFgoulCQ8r0cVGi78q1DOUhdxmD1ox/96HLgcNA0hjnOrLvKbznfvziQzIQC3CcGzyQiMBcE5sk8TXldGgI2QlEQX8GUAz1Nau3hHmofcR9MKVFgMjuPYpV7V9BkYgcQT6oNgnmzNR6KHXbYoSAQs8fbaLpPuCpZo6zAfcAabktaDGJxxbxZ47Hr+tYIKH72s58VxMg47LDDCutYF0wcEF04Yxq+nseFINaX7/Oldba7rte2DTajVelOxnPm+W5amuJyrCKYUrewRvtA1yIfBBG3WawGviZuwpjsc05TOZr2USe97GUvK8y6aODrLtWB8+Lq+MIXvrCDf93EF72Y8T7msWyssV1Yo72M6YPLzzOf+czCrDqLjTbaqO9kFGZ12etSI2+n3ojvzEMf+tCR0+JE63B38Pr85z/fkR7BhQnETJ1GnEEY4LrTRlGd0t1uaXOd0sZnqFeeYv3ndTiTaIwiTJzhabAk5EEb3KjzsuCGFvPJuim9Og4za+birne9a3Uc8UynGUO14+Jz8IPYkLG+huGaa65ZUFeNKsSD8/vik7bgkrf33nuXE7KYkraMiXXqqadOPfD96quvXuXF8zToEjfZu5kLsSmbykmemJCKZ84UqDOLW8a183Yi988Gtka9XTpPBJaUgGJ8LSnu+boYATvN1LYwK4uRK+66Cp54Um3tGNTdITpSBG/Oy/LmN7+57vCJbaNxxKyGZnHQkSadfoJbmrtNGW8s74jm+Yy/t91224K4VjbCNFRMn44MTOAHyqyYLzrKLpSLeEHDKl5RiPGs5rPNvOc97+m4Ftc902aNnBchXhvKPN6bvIEYGbJu1ldjF4vJG4jx9ohHPKKLG4FUibOGooP3YlCxEfwyEGueXxS0NopfBkOm4WSm/sXFF19cXp9YHQSq5Zr5eTS8uK9tktjxa+usjgQRjjFCCAQ/qNBxIKaH3wviXqE0R/HjghLM9w+y5FmahsT4Y6PEiYl5irGGmMWS7+K5555bKrjgl3cCKDczix111FExmVatq06ZjzqlVQ9NQ2aYTS8fbGPm5lFlk0026ahHmDm2bWKWyoWFaOjI59Zbb12bTb6XsR7hm4YSg8Gg5S4Eco/fCto448aYJS6sp4kSjPuCssu3xaWFBJnqfejVf+L7eY973KNs/5A/Zjv3fBGsfvvtty/bfXxv2ib0P/L2+T3vec/Wz7zaNo7Kz2wISPE1G+5zd1UsZLxSjks+/GbmWlpyoKCxuA6FuUsVL3nJS8qZRuKxcZ3zvvnNb84Fh2OPPbar7Fg1TFsIyunMUG6hfBtUyYWFHTMWmvlzlQZpmcn9tLM9UPpYmXjZWFp8tOo8nqG4r26dkTBmtKFxwKwzKGhjB7xKzFZiI4i0mJFzXgWlEA2MOiZso8M9bqPR2RDUm9HpeK1RZg1i5lBG7GM6rKMkQQHbT7Ay4n3Lz+c31l+97nu/dCe9fx4UX3kQZlcAM+rOpBPPfvazS2stc0Et63JmQ4QxShyLlVLdA+oVAu/m8o53vKM6hvtDgx4lkcUvKbDuiveQjvG0On7Uf34tLEVHFcro6fgyKtV8W92S56Etz2ZT+VWndFqBtalOabpvbdpnYQe63hNziR4piyjRonIeBQFW220SBn1oX8X3nplfmybcufTSS7u+pwz6XGEWYctVmFwJbpEjfYdRhOfmc5/7XKlAqhuMiNfI16c5IzEKzni9448/vmdA+NwTgvPoBzAzedsk/9aTVyyeJUVx9Z+vL678w3///vW/cUGhaQkBKb5aciPano06k24qOpQxvYRGQK8OK+fSGW77lPCMjEczdfKNNRKWE9OWN7zhDR0fTK6d/8EQyxzccejU8uFnJNIlny3nwAMP9F0zXaKAi2XZYIMNqvzQqGQWJDhzDMocLE0sIHZpbcQzM6gZ/AUXXNBxHdKjcTHPwv1tcheEW271Nmp5mUnI7xPuz8N25PPRXE8LZcQwFmPkHxeSfJSR9Cy+XsEsg7OWtiu+UDIxwuz3AAsN6gPevTpLwrqGbZ2VV+SONWpMi0EDF1wf/drkY5quSxbjpboWFqQuhx56aLHrrrsWFlfFN5VLZrhFGY+bPwpAZsHlftY9b16GpiVWBnvssUfHNdr8Q3VK57e1LXVKm5+ZmDeLRVm9b7wXuGaNKlikx3cLRWTbJFdQUJfuvvvuBRyw3EG5QZ2SC/WOxb3tKB9tOIt1mB+6LH5b3LMuFsMoeWjfMVhjE+B0WRz6M8RABd8eBugZKPXtvrQYl1NlnXscNH33cCOs++a00Y2Q9huzQTtHlnz7LZ7uVHm2PfHrzIhzxxOvrf7O+6msOtt2z6T4atsdaWl+6hQIVHRNii8vCvGbYuUY1+kAtdGU1/NOpynml3ULcu+7p7pEORTdB3DlO/LIIwsLDF5ayw2qfGNacS8DlhptEEbnPE8s62L98GGlI43l0aiCK1a8DpZiNivNqMm15jw6qnkDOpaTuEZY2YwruKJ5usPGSrJJBqpzPQ2W41jg8O7Fd8LTpaM6LeuhQRm2XfFFbCrn1W+JWwhWXzGeHtZ/dVZeOZ+odLKZoKrdxBP06067Do0WhjaTWpkHXDV5/8kD8elQcFHH0LH2fA2zpINChwtrVTq9dF6xcrGgxVWZ52lFdUq38mvWdco8PD+4xuOaFd8dXKFGFZu5sUqLdww3wTYJHXsG42J5GaTMBwqoQ7GAyQdlUG7UWe5vueWWSzKg2haWDKJZcPYOjgze5kL8WkIHMIhOrNfYX0BJFgda4j3xdcKFuDCQzeCN7+O5dWtCvg+EZBinvenXiUsGcf16K6+8ctxVu55/j7DwjwOOrGOIQN8EBSvv36yEgfVonUk5cR1dziLFV/vvvhRf7b9HrcghHx+vvONyEMUX5szRTSaez3pbLXBosMSOH3mNlklLcWOIceS8CHI5iNBYjx9KXAE9DZbcy1wYEdt8881r9+XHTuI3Hc44sjVMkPT8+jRcUAaipKFDHUdacaeKZSdO1qKITY/dUbZYTtYZCR1XcHHzdId59lGyuJLBz2eJ4jU+m6Pkb6eddqryFNOetYVN2xVf+ehsZIcykU4InS8URa68iYHdUaAPIrEzE2M5RsVX3hkcJN1hjomNcbc6s5klu54b4n8RPy8qyiKXuM7zzzNGerjo/vOf/xwmS3NxrOqUTuXXrOuUeXhocgstQgvUCe3AfnLJJZd0vKNYebdJ6pTDDLrwTWOCIMIoxDqD9TrXPdyLozu2n8Ng1ijhBNrEaNC85CFEUPBEpRbpUM/mA3zESovxExlcYcIWrAzf+MY3lufw3jrTqPgizegGiQISq/b4zeJbMMlJq2JeBhk8pDyed5YeC44JVIgrTJzJuB8FKwH8m9xsKfe0hEGfmB/a9bwn8yzjuCdK8dX+Oy/FV/vvUStySEcoVm6+PojiiwKcccYZteeTziguVEsBhVhlXk5ffvGLX1yKS1fX4IPm126KTcWHBgsGOqd0+vh4b7fddoVNO1yOCMURWT6kufh+FH2Yny+FRMsQGjODClZgKLpwKSDOVz7ih2WKd6yxyHB+LBkpWxTp10mlvNHNa5Ryn3TSSRW/QUfyGIWNjUvnjyJsmBkEe+WXBl7eGOYaPAez7DS0WfGFC5/fB5bUDdTJzGpFrMVe1oHRxX1QxRcKer+Wv4fcS1d83f72t+91ayeyHYWUX5/lySefXDbE80DU7KPeI74LdQpuuSj6XvnKV5au1muvvXaVDlYCs+pYTATKgImoTulUfM26Thnwts30MNqA8X2LbnsMcBF+gUE16v9VVlmlYMZGttdJHNSAPQqiOuF8JshhApTzzz9/Sax9Ucrkk3cwg3a0uKG9lc/iR5iGOkGpU1cnwZLYiig6FlVQgubhGqinXbinuCX2iqfIQE1TvNqobHLFF984rPWw9o3Pa90697nXM+p5HHRJnEu/BjPb9xO+R368LwcZmCHEhVuv9bvGJPfT3vP+g+d32hN/TTL/MS1qpY9/79/FLqdcW8boivsGXZfia1BSsztOiq/ZsZ+rK2NF45VaXA6q+MIKqa6z6mlhYtw2yWdjGbSskywHH21nxMc4CnGcMKOmQ1nn/sV5xKpBWHo6dNDjR73u3hIPYdoSO8goP+vk6quvLmewRFn33Oc+tzGwu5eP5XHHHVcmx2yRvp1GZj6iWHfNedk2SCeV5yI2KIctGwpG5zeotRwj3H5OXNKpmZR8+MMfrr0GSk/cGWYhbVV8UffGvBEsd9D3gAlL/B664gtXEFz6GHVnf3QHo3PhdREj0VFc8UUjOZ4Tj5nEOkoszzNLBjDyThbbqQ94JuviBWLBseqqq1bpMLnLchDVKZ2KL56TWdYpbX/mzjzzzOodgRUWNNQtKLyJydjL0n/DDTcsrrjiio7i0Q6Jio444Y0fyLuKYi23rKItccopp/hhU1nm8aFoz9bF0sQdPLoyNg1YEkKEtg/s6v622GKLiQwWTQXIGInmbqFxdmEs6OpYxG0MrGFh10tifFwGc7FCjB4GMa18HQUSbc1JtSOispTBWoT2N/eethnfUUJyvPzlLy/dBPPB2pg/lMHEHObbGrf7OpNMzEJw6fU8sCSETexjzCJPw17TlV4enwvl11UWoH5YkeJrWGJLf7wUX0vPfC6vWKccoYIbRhnUq0NMOnSw2yR89PKPC6OLSy3R4otZhBAsNTCZjh+aunVGiY4++ujyHEZH4zEnnHBCuZ1/jKrGfayP43pYJdxnJZaB2AeMAhLfAJciOufRXSnPX6/fnENDgw45Et0wYLlIEjupMW5FzobngLgio8iwii9Gammc5XngNw29SQmN3thJitfD5XUWEpVLxCRpi3wki7WGFV8Uno1jjjmmbICjaI5y2WWXVfeS+7rtttt2WSngYuKKNKzH/F7gkhHFFV/spw5zoYFMHVTngu3HDLNk9jTPQ90SKw3cv5s6NnSi47nEUqGMWK/gotNkbTBMXtt2rOqUW3bcd38GZlWntO35yPPDt9oZsUTJQH1wk5vcpGN7PMbXsYwi1qcLE234PpZ8SxCU5Mz0jGKAdkI8Jl9nsDKm6WmPu4wDkFwTqyHPX13aWODjRo1CjkGaJsGyq6lc1LsEYO9l/daUdhv38Y2JIURou/CdcUGxieKEARTagbi75vfZ4zZyDgMduKsfdNBBxfOe97yy7eqDL/l58TcDMChXX/va15bfA6zBiPM1aYlK0GgNybc05qfXOu1Z3PSJuelWx4ccckjXuXFgkfYR1vXMiL0U8p3vfKcrP9yTeZFc6eXKrzMv//fQRZDia2hkS36CFF9Ljnw+LzgJxdd+++3XVTl6Zc8IUJskdw3iQzoLM+I4ZbZbHaDMqTPXxpWAjyRm3nx0YseOziWNCefNKKSPyOQxwGgQRMXYtO5LdGtw96f/9//+X5VHz2vdktFWYhbhmoRZNVYdF154YVdgUmKGwIpR1bxTP61yLVW6sZNKTIo111yzJztiWDTNJtQrz8Mqvhi5rbtfveK+9LruINtp5NZdi2ejzopnkDTHOaaNii/qgOh647Ot0Vmg8RzzDEs6YNE9kYkg6hjHbXR+PX4PwYl934477tiBc4cddqj20ZkjruB6661XxdeijuWe9gsuTAcAF83oYhQvREfS8xCX1H/EAPR6L56Tr9Mhiuei+IgWy1gP0LGlzlkkUZ3Srjqlzc9WHosovi++vsYaaxTMcOq/45L33ZXd1FPx/UIxQrsE5UBUHMTze63jWjjJCWxy62LqrmFiQGE9igs+MTfJG1ZcxMCMct5551X1YK9ysR33a5QgkxxEivlYivVckcVz0BQvMa/PYYAlP7OZ025s4sU+YqnRLkHBxcQ6frwPJE+zzPQZ/Hoso7IUa0HiY/F+8D3hO83gUK4Qw7o6l2jRRrq02RlMwnKM73GcfIE+AYNB05bYvyBPbt027euOm34vpdcJFw6v9CIvUnyNe0emf74UX9NnvBBXmITiKzdvjh+EutlcZgkufiDJJx+PWQhuFs6JEU8XOoc0GrHkIu4Yo4FNpt+cl0+rTCeQBgeNU78Gy3Fc4zx/gyyjUoXApggxMjAz50NOXhgNJCA6SjIsVxjF6lfO/Np08j1Yd75vnn/HTiqNHho3TW4TTJQwbGD5eI/6uTqiWIsNrvhMET9p0oL1TbxGXHdLx0lfsym9qERqi8VXPthAvcZzUDfxAPyIwROFexq5+jox+bbZZpvSncnjg/Fe4ibix+RWhjyjvq9p2e/eed2Auwsu0FHBT95z61ZiCRL/0K3SYvniOpYlBOPH+q0XnzzfuEt6+WNa87quOqVddUqbnyPcFfP3gd904Pfcc8/KRe+cc87pOo7njBhXLnHmu7o0fRt1LFbhTIhEHeTb8yV10ySEtlDuIlcXIzW/Ft/Zc889t9h33317Kv7gh6WMCwqOaAmVlyn/DWcGF7BGnaSiz/MzjWVsT8TyNE1iEK32UZJhVRxn/ozpsB7bzPz2GF+U56KLLqqemWghNY2ykibPj+cPhWkcVGq6ZrRmjzMp017/xje+UQ4YebqDLHfZZZemy01kH5MExLwwC+c8CDG93MLLl6MqvSivFF/tv+tSfLX/HrUih5NQfEULn1hBss4IfpsE5UvM484777zk2cs7nR/84AcHygNWTnXWTXTQ4ggZo4+Yh8dyEohzqYSOqI8GM5tcFDqhmJ1PMxZQvN48ruedVMqANUzeUI/3d9gGUGyo9lN85SPj8brTMHvP3494vaaG9LTuddsUX7iPDOouzKg4Qd3zWIsos5wrE0ng4pcrmpwno81+LLOp1gnuTL2USuQBq9Z+lrVeZ/i1Hve4x3UotbCu8H0s48ySeZ7e8pa3FJtsskmB+2PsbMTzm9apT5usFfLrtf236pR6RS/PwCzqlLY+L7kSm2DsuBgyAJcPrkQFGYqd3JocZQAK97r3jHAT1AkoPxgUi9Kk/MCCalxhYCXWnyguUKAjtLGiSyXfoq9+9aulQo4A5k0DULGc8HBrWdJFyRG/I/HYpnXqr2m46ZGnSQn3LwbzzyfA6dW+pW3oZfe4b1jaEleKbwHukChZOP+KK64os5sHt6cdyaBpnIGwX3tmEuWOMwkzwDyoxG8RbXSUSo961KPKgWBnMcySa0/7O0VMv5gnBqzbLpNWelFeKb7afteL4kb2oEpEYEkIWGOh53XMbLnnvlnsMMVRx2XNNbDj91L8sEZQx2XMXazjd/7DZmBL9qFN1vgsd1ljIJmLTrIRsPK3WUokaywkm/K5/G0WGckUIVUyZl2VrCNY/Z72isUBSWZ1lg499NBkZtEdl7ORvWSdyo5tTT/M7SlZgzqZAjXZrDjJ4gslM/lOZhKfTBHUdOpA+7gX5oY50LGTPMiCA5f3cNA0zXw/2Wh4snhmtadYIyrxHNn037X7x9lo7h89T7d4bj33jbrDOhfJRr2TxbHoSsIUgAzqJOusdO1bLhvMQjRZY7csrnWmkrnapMMOOyzldZspN5MFFE5mrdeFJr471hhP1oDuOoYN1glMptQq95nLQzLrzNrjdt111/I9MqVcMgvFZJarifvIOfwNIjy7ZklRHWqxWdJuu+2WrFNabiMvUXhGeol10pO5HfXanSxGTzJ36mRumcksDZJ1QDqOtcGcRL05iqhO6U9NdUp/Rkt9BO9s/Baa8iZ94AMfSBZLMlHPRDGLpnTmmWeWm0y5Vb5rpkCPhyRTmCdTdpfbzGI08T6blXaiDfCwhz2s9v2yQbxkcTw70jE37WST+CQLQp/Gba99+tOfTubKXNZPXIR33CxRE20q2k9mRVRe26xJy2NMedeRF/9hYRbKOtMUaMkUL765WlKnRrHByLKe4ftNHQrrXkL7ifrYQj0ki21WHtbWOsXcy8t7Y5b3ZT751sCYZ4P8I9x3m224XPd/lN+UrP4z8U1DTNGXzFW//Kt2/t+KDdYkm2mw2rzXXnuVz5iFP6i2sWLWWOUzxDM2LTE3zSrp/LmvdvzfCt8iG3hKptTruO+xjZ6fw2++0bTxTalYtpltACnxHpnrcLIJWspvGG2+Ub9Tddes25a/c6aErDusNds+ceF/0tk/+U9Hfja85w3TVmuN31/oSFQ/2keg/bo55bANBMa1+Lrmmmt6xjBgxKZtQkwke1urP/tAL3kWiSvjecDEu86lBusIXBiJd+DHxiWBzbHaccHlL44mxWOJgTAvQpBPgpES34u4RfZRry0/ViqTGP0lJkdktVTrTbGx6qwz/P41TSTBKPagTIax+Iqz4EU+pjzwbE18udlmm/W8L4zwLqXEkfpZuzoS887vAe6nuIcgWGPEWbOwWIoWBzkvRok9HZ/VMT+G31iLcRzuRz7qHo/D3QnrKlPON14vntNrncDR0RKD6xJfxCW61OMW2STUn1jyYHmRT2ZCuriRu3Css2BJAO9xXIxUp6Sin9XFcq9T/Nlr0zLG8eM9eO9739szex6zk5nq6mZAxB3av90sCWI/iOQxWDfffPMOC6xB0uh1DJYr0Woa6y3qLxfcKGM94Ou00ZjFEvdD3LUvv/xyP6Vc5jNcUi9Hd8+Og+0HbW7ygtUQ1rRMrkS9TrsH66k6a/g21imUa++99+5g5gH/mSjE+a2zzjo5gjJWre/nGcrjM/L8kJYNfBRYhtGXwDLPz+m1xLqYGI3Tlhi3bv/99y/vKS6wPL/k25RyZVxL4pb5e9Arz3xvmBAqb9u1xRIVS/A878OGJZn2/fD06yy9jjeXx0mILL4mQXG6acjVcbp8Fyb1cRVfdATzStF/z8KNsN+NQWHk+WPpHcd+501yPzNmxjzgksNHDwUVwT2bpj2O5+WdizhTpB9HB9hnjJlkGQZJC/cIyobpOg07YlURnJxONx1LlDRHHHFEGZiU+ERNsT28PHFJgxQT93Ekd+2I6U9zva4x6OVoUnzhRtrkCkIcjDp3WE/bl4MqvrhfvRqcHlDd05zkkgZvL/42ojzJS/VNqy2KL97j6DpEEPsoUSkGO+r2XsJz5HybFF8oKHBtyIPoojjKlfIMKqAAG0fyGIzk0V2hYqwRs4gY6jIxr/lzy8CDs2DZy51z0AuqTmlWfKlOGfRJWrrjUDpHBTFuxsQaRfGEe1nuKk1HnXYMcTZzoW7xmZ35dhBbb1BxhRrnoTzIFSKDphOPIw2UTPE7Rv2RxyqkLRjrAb7Rp59+el/FW3TZ43wm+5i0tLFOIQZZZBrbYsSrcpbEYsyF0Ay+P/+OcWyMKenH5UvSJbi9WeqVg8BLNdOhWd9VeSdP3BuelTx//X6j8CQWHO8Lkg/ADPPelAlM8V9UGFMuXILbJtNUelFWKb7adse78yNXR3s7JdMlYKNlyRQXtRfBlcRGQmr3tWkjpupLKZg8m8KnuiSue71ccjBtxoza4h0kGyFM0aQbM2jM/6PguoMLZBRM6y3mQty0ZOu4Y3nZLMjtxK+Lmb0FV0+mXEvWUB8pfVMyle4YVoWOdP6oJ+WuEIOmgxsErgTW0EqmEOg6DXc3a4ins846ayIm8Ji192IzzecKV5NeYjFPeu1a6O24M1vjuCyjzZJYujfHAlNPuFCv4HaC24fFqEnWsU3WUU0W6690ncD9wgV3HlyJLXh8+dxY7KzSvcksHJJ1YEq3CgsenCz4c/nbRrY7XE48HVwcLQ5O6eLsriu+b9ClzWqVbMQ8mZKvPAU3btw7kPi8D+Mujau0zbpVpsG//LtkI/LVPlZw3crFOielqzkuXris4IZL3qifbbau0q3Tz1Gd4iTql6pT6rnMcituV7iSIdTrtOssvlUyC5byz6zBkgW2r8Ip8E6Z8ihZXL+ubJuiLPGeILjgr7/++mWoBdwl+VZTL/US6iK+cbgDUleNK6SHC/VJJ51UJUUebGbJrvecb+r97ne/9MMf/rA81gYgkynBq/N6reQu5qPWfb3SZ3vb6hSbfTLR3vS2gVnLdYTTiO2bvH6lPKeccgqLhMso5+ZCGwcXe9qPuEXSHiBsCs+Vuzvins4z6ZK7wvv2SS9PO+20KklT/CUbGCrb3bRBnUd1gK3wPOOSyHHve9/7ql1m0ZVM2Vz9NkvCap0VG+Ds+D3LH/STcENuq9S5N25wjxumZz5I7o1tvWfTyFf312gaV1Gay5YAnRM6YnUVPTEciJtAbIi2Sf4RpnG3lIICy4WOk40oJuI/mDmxby47q8ROwo/fxUZfk1lZ+M9ko0VlXArfwH2gwZkLH2mzJCs/vvm+af+OHfG6a6G8owNr05qXf8Qu4I+OJ7ENWBIniOfIZkYq43rRAc2F+BejKr5ouHDNeRJ40ZCnzPG58TKgmLBR557xmPy4QZbmxtLzsGm+38SX6SXEiVluQryuo446qiw2DWIL+NuFgPrEBQU7CqOoLLcR5GQuR8ksw1JUfKHIoTMYhQ6juTql17/+9WVMHmKI8TeIuHJukGPzY+jgUDaPbUNnxzvKKO9cGBQYRHhWYlw8syxNFky441TqoSicQwwqOsDULcRWZD0y8+PNpadUCHKM1yOqU5xO/VJ1Sj2XWW2lrUZMTgRFFkotcy1LV155ZbmNfygfzK2t/OZYUPtkszVX++IKSnZiUSLEFeXdI8aTt034dpl1e9km4dueC3FBUWb0Sj8/vuk37yyKeGKeIrRHGBg0K7aep5lrWqX48oPo8FNvnmWDSfyRrlnJlvUodRN1hAuK8Dwmku8bZ9mmOsWs9dMWW2xRflvIF/fZrL06ihfb2T5w4QfwveH7hKy33nq1A7Pw5Y8BEHPZrwY/eDZ84IJ2DsoxBuC5P2bhXLJHiUsM2GkJg0Qu3G8UxeSVWJE2WUP5fPBsM9BE+VCoovxCjjzyyJ4KpKj4Iq7X3cx4oA3CAHZsR5Cn2NaYdR7rlF73vv0K6bF3WyFd/efJDWhfd/2sS6rr9yMgxVc/QtrfSIDRdTogjNJRAdMhYRuVOw2jOIIWE6IhgBXOuuuuGze3Zj238MJKgY/TUgjKqaj4YsQHtltttVWpKCQPNDwJSJ13xmJDwmZa6goWSmPAZivqKgYNUQKL8sFtEhq+BMmepPDMYHnijRx+8+zQEOIPpRdK0kGE0WU67IxAR+EDbLNDxU3LYp3ArYzK2yylteX96Ec/Wo4yxk5/7YF9NuYNnnh4k3IqHjfKepNSzeIKjpLk3J5DeV/2speV+UfZySi4NzxRMvGbdz8qxjk4v3e8a17X1SlxOIf6kXeWBj2Brv39xBKLTqu5dSRG86nfN7BJJrg2lmAu7CMw/DhCoGmCalNnETTfJVp8kZd+AhtzB+8I+u+B+i2OTlkvEZg6D05NxyZ2bvpdh8DOBGQmmPc8i+qUeb57o+Wd9k98Xy2uaGIiFYRvLvUwE8y4YK2H4quXoBii04+CyS3So+IDax3eE6zebUbgrmSoPyah9KKtQLsHKzbqNCbJ4A8LoyZZc801q90MFDDgSJs3ry+xWEJRgVKMQQIXFG2LLCihsCinLsZaCUZ1isTYfqXdF4VBHBeeMSYz4HsTz/H9TGyA0pVjUHRFayu+eXmblwEIJlTCWjC2mT29cZd8U1HkujCQ4kL9OUpAfZ4tiwlXDnh7WnxTUDTHyV5831Ivec5zA4do0bfU+YnXq1N6sf/Sa65P+39ZmqrIajmsS/G1HO7yFMvI6Lp3tga9DA0mXNowF2+r1Cm+liqvjErRcHSxGGjlKg00Rl0RPoLMXthkLeWd1/IE+0eHl4+kC6Nw8UOFpQgdRdwV6gQ3JmY6wupj0soMrNlc8UWj0+Lr1GVhoG08X7niC8uQQTrBA11gzg7injF62qvDjdIAxbV3ZEYpXl1j1NPB1XRa0tSwcmXMtK7dtnRRQNFhtCnfS4UQHUYa3yxpMMd3Pc87AxGMRqNcp8PibnyxI8cMo7hg8B4xA2MdX2ZQ3Geffcq/eI3cvYROh882G48bdp0Z3Phz4VmLlmQMGDQJHV7qGqwzosCSfVhpMJI9rFA/wgmlPR06RuZhhrJuEUR1yiLcxcHKgBKD++0ujgySYCnsQjsCCyiUWS79lAkoyPmLdQiKLCxeuJ5L03fFjxl1aZNglBZl5J86Ewu0QWeWzS1JcfV2oezUO1h0WWzbRL3p1m1+jFuq+u9FW9LWgAkKQovx1dO6LbrFobyKEgcwcGllgJ37g3UxXFG04oqKsosZ46nDB6mrud+kw0AoyrJ+z2rM06DrzFYZvQ6i4mvQNPw42md8hyhnneU+1o82uUz5nfFzZrFEOZ5LU/ssP3Zav3/02+u7Zm+c1rWU7nwQkOJrPu5Tq3PJR6QpHgcfGjo5xEJAiTMPljc0XGJF7kqZpbgRWDG4oLxi6mYEKw4LDF3lixEWFF80FBltpJMbrRJoLGBaDn9izWD140oIOra4T1522WVlZwzLBgRLB0zBcVfKG52kh/ix5Y8J/aPDPCnxTntMr01xEGK+lmqdKcMZ5SSWUy7cTzo2xDcadRSdjn0viZYAvY4ZdXvsJOVpDBPfKT93Hn+j9KIzhwsHAwuDWPHhzsdoMUqvukZqVHyhyOG4OqHjQVwVOhHEmck7McR6caGzm09b7/vGXeIeR2fGhXq8SXDHyZVeHH/22Wc3nVbuQ7lFTBaUxgzi8O7wxzXd0q5vInN8gOqUOb55Q2SdEAj+/qJkzpU4JHXXu961I8VoEdWx4/9+RIWX78eKHStSvlMuk4jf5WnVLakrKRNt02Ekul9SBxDOg3Yw7z+hJ/LyYQHrwvGUc5GFNhjtWFwJ3QW9rrxNii+/9wyuf+ELXyhPx7KObwcDm1iyv+lNb0r5oEp+HQZVGaylnkYZye9p189YOLvQNur13eQY8s+gMoNTDFCyjFbYsT/gabLkfcHVGCUb325imuYK2Xj8tNfzPhID2LkBwbTzUJf+fe5g7oxrrJC+dtX0BmDrrqtt7SUgxVd7781c5Az/dEyL+YAR7Bh3GxQndHbp/PCBp3Ku61S1uYB0ZGJjJSrBpplvWGIW7uLWXv6bAKw2i1H5c7/99kt0PnAHqBvpQlGG0ouGw0YbbVTeG06kcUbZUJqhVCMOGw0UtwhhFI3RNlyI3P2AzqS7X9Zdy/M36rIuADpKOvKOUpUGD390bFHiofCgg0njKI87VKeEabKMGzXP83QeDXGeKxQdHssk5p8YdsTjYJR2FGu+pgbXNBVfTWk35SmWfVHWCTrvgkUBFhq8MzSiqX+pj+mgEpPn4IMPLg8loHRTYOaoRGoaGSfOF38IbikoWF1hz7bo9sE165TTHDeuEOMvCnXEOMJ7Q6eYP75l0RoWhYDXxeNcY17PVZ0yr3du8Hzb7KulEp0zGETrZTUcvxkMmKFcGEViEG/Oz7/to6TZ65zoHt3rmF7bo4s9yhTikfUSFBLRXTMPFcHgAkqMRZJohdtUrhg7Nz5DnMN3gj+E+GAe/43ffF/4NmHtRPuV+F1Y1uJCSBsHF3SfqIQB3xjcnu8iiiaOj/FxSXcSQtvUY+GRHvc7Kv9wecVLhv4S7VsPwt/r2ijp+P7QJ/El7xfrHhOMCWZQkNlsx+U3inb/UkveR8LSsQ0Cia0fyvv17y7l1wPvtELa5H6dsTsnnedVb73092LSZVi09Bartl20uzNH5aFjhbn7okg+YollFB/MvGE2yfJieUMcDVdAoaDKreNQfNm0zOUxsTNJPlZbbbXyw0/Aez6SdGhRYBFrg/wjxEgg/kF0+2O2HBQIjFq6cAwfLhq6XBOlic+SxwiVB2j248ddRq40BuhkouRqsujBJZR8oaAjjy51SrRxrX+wZvFYJH6dpVjyTnmw8nGvR8OSkVICgccGp6eLOT3x5IjLN2zDqYlvvxFZv/4oyxg3JT9/uSm+YvlRLMWOQtzn7tJsa7pv7I8j8k2jt8zKRoBh3kfeWxTtxA3EQhXFW3QFmqabD3VCFKy5iDPWq2NZN/JP5wkl8AYWm4z3Lw7aRMXXuAMAqlPinepeb3o2Vad085r0FtojdNB577EEzwfh4vXi9xtlc1NdEc/L1wnf4EIaPvDm29qyzK3h6/LFNxZLOSa2cMtZvqtR8UUdjVIHZvBFYZQrgOrS7rVt3uqU6JbeVG6+I1FQWNEGpb3CXy7wdsUXCjIGhxkYwhKLb5F7LdAe5ps1qqI2vy6/aT8Re8slzx/lpI1+3HHH+SHlkoGlRz/60eX3igFtF6ySm9hwHIo/+g1YfDOwxTd+1HfQrzvskmcvyihxzOL5k1zvpfy6+NfXp7ve5gZpsykrvyZZFqU1PgEpvsZnqBQWkABTCkehk4OCZRpTUPt1CHzsHw86ZEzVnHfYsNhAkcVHHNNtRkT5WDLKlVtR0Igkfg0ukXwEaWQRW8dHify6LIlpQ8cVpZoLI1GMZBKLIypKmqxs/Nxhl7k1ST561Cs9yhUb3RxXp7Sp6+D2SrNuO42POCtT3THT2Jbf/3GvgTKV0UgmPvDGX0wTxRhWLLHhFff3Wmf0FNP2uhgUrnTtde442+NzmaeD64mkm0DsbDQpFziTOsElf0exyOR5oaFPnYB1CC7tdJKZ8ZC4JnQ4cFNx1w2shIghNi3JFV+MhOPKSQwUprXPy0B+sXZlkgfeCSwDBnWLjjFcRimP6pRmaqpTmvlMey/vLEpqXKb7uebFTnbeDhk0nygzY91UZ7k9aFrTPo56LBfaB1jSo4RA4cUAQC4o1P27RB2JSzqCsgILNFz3cBkbVeE3b3WKD6bCIG/Hsc0lxvtiG+3wunYeA6Xch2jVjmcEf3VCaBAGd+NgUN1xw2zDAs0Fbxfa57lgLcwEB7gp4iVDW552vQ+yYJHtg060w5sUX3x3Y3mZaZh2GBMrLJUQf4y/KG1SfJGvXsqvz//QwrwUKW225nQtvyIbrc+WgBRfs+Wvq7eUAJU2I0o0JFwwq8Yiq+6D68eMuuQjhVLKhXhavUyFaRzhwsSMRHFKbBQZ5JcGBO6mxAfDLRDlGLMweYPLr5EvUXhg1RatGjgmMuA3aeaKQbZPShhNxYWWUTM6lzSqiamBBQ+WajSssW6jUUE+mhpMnicfcfXfwy7HVZwNez0/fhrXxRoHCx2UAXXCzJ/EIRkmEDcdASxronuwp40F37TiT/RSRtJxiK52nhct//v+OodhFF/euaVuoX56//vfX1mSYmGKIoy6gzqEfbgo09GLylvcr0ft1Hmeey1RvsX4QH4c9RcBkckzz2cej4hYMeQ3V4r5+b70+Ij+e1yLr2m82563puU0rqs6pYn4fO6js81kFoNIHAwbVfFFXD23dueafDdwWWP26jYLFkMoMK6++uq+2WQQEYHXZpttVtaV8SSUfwx+jhoMfRrvdsxfr/VRr4vyz6WpHYdrogvtbxSy3/rWt8qg9gzs8kfdT3sguuf7OXVLvn0onJrib9Wd17QNZWecNfl5z3teeThtcxRguDdiZUYcTBTKBOnvJ+SPwcoNNtig61AGFesmF2MWS9rpk4yd23XxsMEVuGFTrcIv7p/Fek/l14/+k4gAtrmUX7O4LUt+TSm+lhy5LjgPBPi4ojCiU+SC2wwdp6aYOH7sMEsC02P+7hY4++yzT/lh75UGFglx1kc/jkbiU5/61DKwKp04Rswx9x5GSXXAAQeUZth8TGNj1q/BEiXdpK02YoMXBV1uuRGvP8p6k8vkIOkRa2Jc5dkg18mPqRtZzo8Z5TdurQRSjaOTMZ0XvehFpZta3NZvncZcneKL8xgBH7Ux33RdylAndMSnoaCuu9a8baPx7RKtKlDs4J64zjrrVMF/o8UXnQ8sQFG4u2UfzyfPEhaC7v6D5Sr3hXc4ujhyTdyqpyV0OKJyio5GvD6WFHQ2654Z6kvcZptG1mMdRRmcgZeHZ5w6k+v2U6JxjuoUJ9d7qTqlN5s27cFqxWVUxVeMUehp4SaGJQmugG2SvC0QlV645WG9g7U9S4RvH7GmaItx7Oabb95lIcNADRb343wn561OQbnp0qQ88+D2HIt3A/GssCweRLgfDAJj7c5gKUv+6kJiDJJe0zEMrvg3iPaHh8fg24h7Jm19LAL5IyYm1loMGDYJykFm3GZQCatlFwZ06ItEt0oGmVAUMzvzUim9yF+MaUb+MBzIw8V4vme9dOVXYTG/vh4C3p9myi/zFk1b3F+WX7O+R1O/vjXmJCLQl4CN8luVgEFo559Z5vQ9d14PMAVPV3k33XTTiRbHLLcKs4Aor2MjXoV1KkdOf++99+7Kr3XCChsNGzpN8sW9ze83v83yqjAl3dBpNp3wtre9rbqWxT9oOrTvPpsgoErL88+2RRPrFFblNIXT0MUza7rCRhOrNJyVLy1IefGhD32o2m9K1cZrWKOuOtbT8KUpRhrPHWWnT67ATgAAQABJREFUKSoKa1zWXtMaoKMkOdY5Nnpc5cVGcsdKa5onm7VklU9TghXWUC/M1a+wCSAKc1ctrCFdXd6sXKtj/V760qy3CuuUVsfGFXNNKesJP5alKeILUxbFwya6bp3MKq82ml+Y5Vlhje9qm+fFZs3quq4FSy6s01CYUqxrn28g754GS+vI+q7CLD4K67iV+015VlgHpTBX82r/vKyoTmlXnTIvz425CVfvRl1dby7phbkRF7vttlvPIpn1epVGfM+sE12YdWXP82axg/rC80i9ZgNFhYXCKMzKpjE7fCNNAVKdSxqmDCvMZbzxvEXdaUqsikWvtq9ZclXHwMsUXoVZxRXmEdGx3ZRLBc+KWVIV8VtgMdSWBJ8pQwuzJq7y9LSnPa3juvGZ8WfHAtR3HOM/zOWxSie2cfjmmAtk+ZyZ+3F1DN87s+IvTAnlSSzZ0jxQqnx4ucxSdMmuP+qFrrcTj77gumLHE6/t+Dvp+/8eNUmdNycEMC2WiEBfAstR8UWHMH5cqNT5CJk/fV9egxxg8SwKG3kqPxp00PJ06dibKXNHUieeeGJBp7JO6OhZkM6uj5CN/tQd3ncbyi2LM1agPPMPmi9thLfv+cMcYDEYqmvQoa4Ts9oqLBZGYTO3FRbYv6ODHo+3GZSqtDy/NsIWD1mI9XE7qUCwUcPCRga7eDm3uOyn+OJ5sdHV2rRsNHvizG20tPZa5hZbmMvIxK/XL8F5UHzx3sZ7alYWRex8oIBGeC4s9kmB8jMezzrbbIS3H46Cxm9+Lu/uNASFVbyWBYouL2MWbAUdorjv9NNP78gCHRZz1SyPaSqXWXN1pBM7NtTJsbPC9VCkmft6Qb01L6I6pV11yrw8N2YlWr0beafXYg4VFjai3E/nvE7MRa06n3eH95fBA39vLeh73Wkz2xa/PebONlA+zMKnMEvQqkwws2DrA527qAdFJaAr/xhgYNAZxrT33vnOd1bMeB7McrfCcckllxQWJL6gnqe97GJeE9U5Zinlm6e6NJfX6prkM//W0Z/YYYcdOo6xeLu1eYrfErig2PJ3gT6Dhfwof9Mf2W677Xq2hWsTn+BGiwNYWJzMKm/kkcEzsxSf4FWml1Qv5denL5bya3rUZ5+yFF+zvwdzkYPlqPjixljsl45KnYodi6RJjEDS4TRXocICMHd8tLkunSWbfa+wabMLOmYu5uZYfmhoENQJHdZc+cXvQQTrDYsjUNhMkoXFoigsaHVhsZnKU1E0kU+LT1Aq63KF3CDpNx3D9fzDzpKGC41dLOzgjVVcHPniGCwsLHZZV7I0FGJarI9iEdWVcMs2TKKTSpG47zRWcmb5736KL9LCcig/z3/3sg7ivFEExYOnHZd1FgejpD/sOfOg+GJUPbKK63TgsPDjnbPp17uOozHO6O4gVlso2OqUoKSRK56G5Vx3/LbbbtuRXwuqXx3G8xDLaS6J1T5WPvKRj1T7DzvssI598UeuNDQ3k7i7MPebKp14PZsZsjCXno5j2/pDdUq76pS2PicxXxZTqcBa3Z95t9zB+oRBN99u7n2ldWk819fNhbo6juOx8mHwIg7KmAu1Hz7zZVRyuOILC2oUfAyWmsthqbhDaYMSxwKZV+VjkBOlDoqQ5Sy5xTaDMOYGWpg7YsXKnx1f9rKQyjlanNIqjXe961357on/ZtAvWheb+2LtNbjnFm+yasviPYFgZY01JM+OhZ/oGERhUIdv1sorr1yVyXnkyrXai05xo00M05Unc0+e4hUnn7SUX5Nn2vYUpfhq+x1qSf6Wq+KLEQ0frfSPDUuLgTX2ncEEmwZeneAW4NeLlmDe2UcBhclzneTKL0zCBxHS9Gv60gJaFxYEvcA6bZpis0p2Xdvz0LSkgZkLI4D5OTQ+F00m1UmFS5NCxFkOoviiE4TLnJ8Tl26FM4n7gBKC0dKYPuu4nWCZMwuZB8WXBQXuYgY3lPAo82PjPWfb5KYUeZMODf/8fP/NffPOcTxv1HWehai4zTtHdEronHJ9iz/U0eGks2rxg6q80iHtJSivvAws6zo3uQLOj6eeigMYva4x6+2qU9pVp8z6eRjk+nloARTbxx9/fIerM/VKLytc2hbREipafJOWv0Ms26L8iiEAXPEFK5Q3DFjGPMd1BiEtiP9EBk4HuTdtPsaC03dw4jdhOfAwiM9D5Mc+6vt+wnPi5zGwMW3BUtivxxK3xiY501zjsf464YQTCpvBsVJqofjKrYdducUyKpi5Di620dKt6ZqT3hcHjLzs3DfCJ8yb9FJ+nXX5ZEO6zBuXRc2vFF+LemcnXC5iNHjlFpd85Bdd6hQpMGDUbxqCKXfs1GPO7RKtCiwgvm/uWqL88gYYFly50OHL809cL9yY4v31dRRgddZVebqj/rag17XX9evHJWbexKbaZZddauOXYbURj2cdl81Fk0l2UmGzxx57dHGLHAdRfJHOxz72sdp0eIYmZSlo05nXXiN3syE/SyVtV3zRscitJrm/WFVQXyAWRLjgPsX77uv77rtvX5SMaBOHxM9hSfwfm7CiYxvbcQOchDLIZtrtSLtOyU2+bKKPgjouSm4N1mSVaJObdFyHgYJcqFej62jkkNe3+blt+K06pTOGKfdv1DoFSw0sl7EM5Ft99NFHFwwMLJrgShaf8+i+xnbiHjXFu8u/O/l7gitXTH8pLHj63SPy4HmKii8/j3qU++7H5EsUBLRhsEyK7Ts/fzksP/jBD3bwiQoTPB5wX8QjImdH29gmVyrjovV6n4466qjqvM985jNTxcm3JcanI2Yb25qEwRj6FTGUigXgrzwsoqtjtJBGsRoHeWCD62O0cG667qT22UQ3VUzLeH+IMzyvkiu/djnl2uLKPzTfx3kt63LPtxRfy/0JGLD8mCDHCs7X6ewtB6lrxDD6Mo1GCx9158syBpsmjhfuj76fODy9hI+vzaxWYK2Xi4/S5iOov/71rwusEzz9uMT9qSn4c36NYX7jXuXXspnXyg6qzchWulsee+yxBbHNvvvd7w40umUzI1VpeZo0MhZNYmB6j48xThl5XnBHcWb5clDFF3mI8VliOjY70ThZLM9l5LOuQTxrE/u2K77qYvXRiUAhFgXlD4pFrDZ4F/3+EVS4SXC/jkGFOQ+lF50YLFvz0Wr228xnPWMWNl3L99E5iso8XKYGFZsFsiv+V6xr83RQnDkLlrjk1AmWYXVWws95znPqDm/VNtUpnYqvUeuUuoDPPDMoSycRJqFNDw0BxeN7EdcJURAVGnm+sWaP7RneKZTHUbDgzQfkesUKi+dNcz3GkKpTfPm1qfdwB6tzHY+csIh7xzveUeBhsFwkH+ykjxEFZWkvyy9nx/PFRCK0DaOgIPJj8n3xuEmsx3hv/drIfAtpi+bhSF772td2KMWj4gursCjEhYsD45STeJIMTC3F84OFmcfEdMYsCW0w73WbK79effK1xRW/l9IrPneLtC7F1yLdzSmWJR/t9gqPwIbLQbBUiQ00Lz+d3UnOpIK1V+zU80HLR4923XXX6qPOsaModbC0oNFA+jQSojCK1sv1kACt05AHP/jBVZlsCuixLlGndCFuwqJJHGVkRqlJCJ2MqMDx55zlMIov4kD16hAdfvjhI2cVNwCfECLmjednKRp9TRmP3No2qyMK88jL13GzaJLYwG1693H9YTZDT5cl8QKjOzZBruN+X2cEm7gnwwbEpYMcXTPpHPdyp8rLiLuMBwj2fDApQpOgfPdjWWLZ0ktQyOWdXSxf2i6qU/6n+Bq1TuHex+ckXx/EcrLtz4nnD+VxXj7/TXspj6fn57Gk3RTd4lFyMFtfnTBhTVRwcw0mxMnbRnXnTmPbK17xiqrcTYovvzazPRIywmd+dUb5kjqJwUgsghZdNtpoo4ohHHKFZ7T0gxtK0jqlkTPkW8B3hEFdni22c16e7iS50laOdSaDrrnwjDJATt7ybw7vSJ03QlR88W3NhXNou3vZfcmAC9/0QeJw5mkO8hvFXYxX59dlSV2wCIK66+/zMx/NIiBf8jJI8bXkyOfzgsQliJWcr+MWMwl3lXmgglVN3viCAx3xONPMOGXJZ33B9SQXPmrMkuf3AOXXKO4YxCkjDeIi1eWfQOW52xMjnZMWPqbxOuPGT8OqyNn4cppumpPmMWh6KC69fATRnZSg5OWZ8LR9OYzii7xcddVVtUoqGmxYEw0rjADXKb1wF+g12cOw1xjn+DYrvrgXfh99iZVlk6Asi41rXFhzweXhyU9+ckfanEOntO67kE9i4Xlhebvb3a5stA/aUdlrr72q61IH0jkeVOomLekXwyx2dskvI9xNkl+DIPdtF9Up/1V8jVOnHHroodVzGZ9vX28KUdD25yPmD0vy2On38rHke06bsZdgGRKtCzmH96VJ6tzbscTHSn2pJXb+6xRfWKszOQ+KDqyoXZgsiHoLJXvkla8TnqKu/vR0FmEZ3d9pb0Qh1lccOIjPBkpBYmr1evZg6TMN4nZe5/EQrzXOenSV5/sfv10HHHBAgdtjL2UnsXcvvfTS2stHd0afaTk/EJfgOEgenyHKT5t3kvG/GFTKlZV+TZR6EhGYFwJSfM3LnZpxPps6LJ/73OdmnLuluzwdOq/s45Lphj0I5ai5oVEUP3ik3yvYMiNIcVSIY2kYDvORj4FjCQhdd+43v/nNgn1e1mnE18iDRhP7xwUlHwoP3LGI3UMDaPfddy8I8o/yj44anRQ6E4wI0vCoc6nq56bl15uXJSPpfk9Y0iCZpDB6F5UeXGNYxRf54Zmuc7EjbdyBYkOxKf/Ex2EGpFhm1gmE3OSe1pTmpPe1WfFFJyrWLTSMfcbWXhyYCTXyPvXUUzsOZXKO2PDGYoP3MHedjCcx+u0TdMS04zpWIEcccUTjs4Hi1K9NB4mO0DCCa0m8JnVp5IE7CfeTeGW4IOFSHpXznDtIfMvYWd94442HyeKSH6s65b9Kr3HrlKaZbXlu6AwvguQhGfx9om5vCu6NlQxuv348y0GUgViP1s0Ui5XLUlubRKULdQTCt4yA38xC7WVj4gy8JXLBshoFWJMrH23NRRUGO294wxtWnPKZx7fYYotqH+72dcK3BCtiFEjOu27Jd4K2IveJgVtCZ+DOP6h1cN212UYb3O8fbc48PiSzoNflh20oNqM1dLwG3+p4Xp0VmR+PJ0PdYLyfzzeLazGZDANZowqW9r04v/CFLxw1WZ0nAjMhIMXXTLDP10VxTYqjL16p+hJ3mGn70beFGB9bZlLxssclH5leiqpB8n/OOed0pIsrTdOoXwzg6flAEYT11yDul1j2+Hks6cjVzd5ImVFu0gEc1h1pkHLTgIj5YJ2Oeeyo5/vrfvOMRuVDPGaRLL7gFZWRlJPGHSbuk3SRePe7391xX0ZRfHH/UV7mAc/93uCegAudB1ePzwsKLcz8c8sAP5cGV5tiSsRnr22ujnB1yyyeldy9OXL39RjAGeYowaPgLogVFO8W8a8GVWLSAPeJN/xe1i3Jb52gkPMYJ9QRKKmGlThSz7VRhEWBz0orrdTx/Od57JW/mA7rWAAR66zN30jVKf9Vek2iTskVxvlzM+gsy/lz1LbfMTyBl5FOOO2SXkL7Ibca4d0Y1DKFwcWoMPHrUqcxODtoHdQrf4NsZ4CQ6/m1qfeZdIhJQnwby0c+8pG137V4DSybYhzFeD7tyab2X0xn3tZROsWyxrYF/Q3fRzuwn0Uf7VNc/+pmJfd0ei15llZeeeXy3qF8QynNQB0z9mJN+MxnPrM2hhjtLG+X8A0666yzum4BFsj+nYrXJ4wIee4lDMDE4xnobRLaT/H4Xuvkc5NNNiljgfHN7MfVr0lc39VWW632GjBCiSkRgXkiIMXXPN2tJcrr9773vTI4NR/kfIaeXpUqo3yMdNHBxVVtnNGFJSrmyJfho1cXRwo2NIhGtYoifkHkO0gAV6wu4jm+TgOUziXWU7jBMRLJ7DYosLgO1jbRXdLP4wPXK87GyMD6nMhImV9/WktG4edZXvWqV5Wj5NyzJiU0948OOUG+mVlqXNl2222rexMbp6OkS4ewrrPEPee9YXQc1wQ6DMRrquvgcCyxw5rcaEbJ2yTOabviC4se4m4NGu8unyQCy8xJCR1UGvQEs/ZOJM817i80pglYXGfFgYLNLTpxI2KwYBRhBNzrGgZu6qxdafCvssoq1XF+vC/nfaRbdcp/lV3TqFOaJgnZZpttRnlkW3cOrrv+LviSWQp7yRVXXNER1Js2yp577jn0YA1uVX69fEmdgKXUIAN/vfLZb3sMZp5f338Tz2sYJRzW7HVu/PkstP3yNk/7qfudlyt3GIz1+p16mWdmUEGZdNJJJxV1z6VfZ9Rl3n5ksIe0sPhqamdxX6PyK598hW/qs571rPI9wKIapRcD1zGffAv7CX2FeM6g6/3CHdBmq4ttTPpwxnJRIgLzRkCKr3m7Y0uQ315BiAetTFGCDTqasATFmcol+Mjm8bicD532UYQRIk+DkadBR/twC4K5nzvukhHZSVoO9WNBAzG6baIcYbY3PsrE0mBmLRQwjJRhmUGHHIUfMRQwXUfR2iuQurPgAz7P0qvx4eWrW8JoXOHeMPpJ+uMqvsgLzxUWAcRhiw3CuvzHbRyLQo84U02jpeOWd5zz2674GrZsMaYV1gfT4o5FIBYA/eocrD38PWCmtN///vfDFqk6noEZRvZ5ppo6V+yrc6/i2STY/TyLs4zvWb911SmD3XE6sDvvvHPtwOEo8TgHu+rSHpW3f7baaqueGUABEF3VsaZkIG4UwcKk3/ee+oo2wzRmocZludd7wjs1qtU/1ssoDr0thGIwn+lwFF5tPWfrrbeuODIgS1vDLYGxphonhAHp0X70QZVe96tpO20OLL7yECa4rhK3i/081/0EhRbWZJSXb10U2qX92kG4yw8ihIOoi81aV0YGSGlb11mqxWvhglx3Plaa0/D+iNfWughMi8ANSNgebIkIiMAIBMz9L9loVbJOW3m2fRCTWSEka5gNnZp1LJPFFynTssCVyUYAB07DrDnSLrvskswSZuBzmg40a4tkgfWbDpnoPmukJDO/TjYzXDKlaTKz7KHTNyuOZBaHteeRprmB1u7TxmYCNnqe9t5772SWWMncfJsPHmKvjRYmizOXzIonmatj+WcKkGSWP+X9t9gtySxu0jrrrJOss5GsUzFE6kt/qMV9Sd///vfLC5tFaDKXjaXPxASvaA3pZFZNZYqmjE7mqjfB1IdPymZ7TWaZlV7zmtekDTfccPgERjzDZmRL3FueVxeL6ZisU1o+q75Ny8EJLKc6xWLaJVPylHD4vlnMymTuVYPDaumRp512Wlkvkz2zRE4W0D2Z0qYjt6bMSWZ1nsxCptxOnW4K9WRKs2QB3juOHeYHDE1pnUwJ0fc0G5BI1MemiBz7fTWXzDLf3t6LFzcLpWQWR8nCEMTNQ6+bUj7ZzKDlM2IW0EOfPy8nmOt8MgVXWbeed955yeI0JrOISjvttFOygO7JlJdjF4W62yycyz+LU9U3PdoYNiiXaI+a1WayCVe6zuGbaAqrZAYCZf67DhhyA20gU0Ili/lVeybvisW2rd2XbzRlVNn/gK2FIih3mwVd2fY1ZVcyi+qyX8H3axAhDdp9ZnlYHW4WaMli5iazyK+2aUUE5orAtDRqSlcElgsBXHKYkYwRulFH+ybFCt99LKT6xaexSqprJIdRLCxxRplxb9z8u+sRAUHHkWg+72XEfU4iAtMmsGgWX1gbUKfxHmFtuZyFWHNen7C0QYbljENlH5AAlu/RNX2RnhssQLFGIRC5KRhqiWCNTbsC92ViN00yJiMxBt1CKL6bdevrr7/+RCxUCEjudWK8Dq6tcvuqfQQaN+Lq50He4TeOFW/ThfCewLqJOKi4G9pgWulmz3NB2BImLyGu4yDxqgj0Po41Wl0+mQW0l7UWMbxmKUwaRX8Cy7RBwyTMMr+6tgj0IyCLL/t6SURgXAJXXXVVuvjii8uRonHTmsT59gEv88NIDX/WoEhmSl7+kT6jQIw+88dIkAXcTaY0SmYaPonLj5QGo1QWJy6Z2+ZI53PSHnvskcwdp+N867Qmc3vo2KYfIjBpAotm8QUfm32tHNnGKs9iekwa2Vylh4WJxXMpR8yxsG27BeJcwV3QzGJlZB3XsnTWsU0XXXRRsoDdC1ra7mLR5sCCd1rtCtI3V7TSyoU6yhQcZdvG3CrLdg1tG/6w+sJ6eBJiccQSFosuNmteOuGEE2QB40C0HIkAVn4W4iPZrKfV+bSFbeKRsm1ebZzBis3UTFikZCFYZnB1XVIEJktAiq/J8lRqIiACMyRA4wF3URdMu+ls4IIqEYFpEsAFz0ZHy0tsueWWabvttpvm5ZYkbRrhuDtMqtO4JJme0kVwczKrgWRWAlJ6TYnxIiVLZxFXNdzizEooffazn002YdAiFXFZlsXicCULyl+WHbe4k08+OVmQ82XJQoWeLAGU5CjLXfbaa69kkzX4Ty1FQAQmQECKrwlAVBIiIALtIMCIL510Out0NmzCgCWNB9QOCsqFCIiACIjArAhgpUEcOmJLIjYpS3r7298+q+zouhMkgCLTXOYS8csY7BglHukEs6OkFowAilWbeT1ZyJLy+cJiUiICIjA5AlJ8TY6lUhIBEWgBgUMOOaTsZNisj2XjoQVZUhZEQAREQASWAYFc6UUwdxQl03L3WwZIVUQREAEREAERmAgBKb4mglGJiIAIiIAIiIAIiIAILFcCP/7xj9N6661XWnox6xnWG7vttttyxaFyi4AIiIAIiECrCIweRbpVxVBmREAEREAEREAEREAERGA2BP70pz+Vcb3WWmuttP3226fVV199NhnRVUVABERABERABLoIyOKrC4k2iIAIiIAIiIAIiIAIiIAIiIAIiIAIiIAILAKBFRahECqDCIiACIiACIiACIiACIiACIiACIiACIiACOQEpPjKiei3CIiACIiACIiACIiACIiACIiACIiACIjAQhCQ4mshbqMKIQIiIAIiIAIiIAIiIAIiIAIiIAIiIAIikBOQ4isnot8iIAIiIAIiIAIiIAIiIAIiIAIiIAIiIAILQUCKr4W4jSqECIiACIiACIiACIiACIiACIiACIiACIhATkCKr5yIfouACIiACIiACIiACIiACIiACIiACIiACCwEASm+FuI2qhAiIAIiIAIiIAIiIAIiIAIiIAIiIAIiIAI5ASm+ciL6LQIiIAIiIAIiIAIiIAIiIAIiIAIiIAIisBAEpPhaiNuoQoiACIiACIiACIiACIiACIiACIiACIiACOQEpPjKiei3CIiACIiACIiACIiACIiACIiACIiACIjAQhCQ4mshbqMKIQIiIAIiIAIiIAIiIAIiIAIiIAIiIAIikBOQ4isnot8iIAIiIAIiIAIiIAIiIAIiIAIiIAIiIAILQUCKr4W4jSqECIiACIiACIiACIiACIiACIiACIiACIhATkCKr5yIfouACIiACIiACIiACIiACIiACIiACIiACCwEASm+FuI2qhAiIAIiIAIiIAIiIAIiIAIiIAIiIAIiIAI5ASm+ciL6LQIiIAIiIAIiIAIiIAIiIAIiIAIiIAIisBAEpPhaiNuoQoiACIiACIiACIiACIiACIiACIiACIiACOQEpPjKiei3CIiACIiACIiACIiACIiACIiACIiACIjAQhCQ4mshbqMKIQIiIAIiIAIiIAIiIAIiIAIiIAIiIAIikBOQ4isnot8iIAIiIAIiIAIiIAIiIAIiIAIiIAIiIAILQUCKr4W4jSqECIiACIiACIiACIiACIiACIiACIiACIhATkCKr5yIfouACIiACIiACIiACIiACIiACIiACIiACCwEASm+FuI2qhAiIAIiIAIiIAIiIAIiIAIiIAIiIAIiIAI5ASm+ciL6LQIiIAIiIAIiIAIiIAIiIAIiIAIiIAIisBAEpPhaiNuoQoiACIiACIiACIiACIiACIiACIiACIiACOQEpPjKiei3CIiACIiACIiACIiACIiACIiACIiACIjAQhCQ4mshbqMKIQIiIAIiIAIiIAIiIAIiIAIiIAIiIAIikBOQ4isnot8iIAIiIAIiIAIiIAIiIAIiIAIiIAIiIAILQUCKr4W4jSqECIiACIiACIiACIiACIiACIiACIiACIhATkCKr5yIfouACIiACIiACIiACIiACIiACIiACIiACCwEASm+FuI2qhAiIAIiIAIiIAIiIAIiIAIiIAIiIAIiIAI5ASm+ciL6LQIiIAIiIAIiIAIiIAIiIAIiIAIiIAIisBAEpPhaiNuoQoiACIiACIiACIiACIiACIiACIiACIiACOQEpPjKiei3CIiACIiACIiACIiACIiACIiACIiACIjAQhCQ4mshbqMKIQIiIAIiIAIiIAIiIAIiIAIiIAIiIAIikBOQ4isnot8iIAIiIAIiIAIiIAIiIAIiIAIiIAIiIAILQUCKr4W4jSqECIiACIiACIiACIiACIiACIiACIiACIhATkCKr5yIfouACIiACIiACIiACIiACIiACIiACIiACCwEASm+FuI2qhAiIAIiIAIiIAIiIAIiIAIiIAIiIAIiIAI5ASm+ciL6LQIiIAIiIAIiIAIiIAIiIAIiIAIiIAIisBAEpPhaiNuoQoiACIiACIiACIiACIiACIiACIiACIiACOQEpPjKiei3CIiACIiACIiACIiACIiACIiACIiACIjAQhCQ4mshbqMKIQIiIAIiIAIiIAIiIAIiIAIiIAIiIAIikBOQ4isnot8iIAIiIAIiIAIiIAIiIAIiIAIiIAIiIAILQUCKr4W4jSqECIiACIiACIiACIiACIiACIiACIiACIhATkCKr5yIfouACIiACIiACIiACIiACIiACIiACIiACCwEASm+FuI2qhAiIAIiIAIiIAIiIAIiIAIiIAIiIAIiIAI5ASm+ciL6LQIiIAIiIAIiIAIiIAIiIAIiIAIiIAIisBAEpPhaiNuoQoiACIiACIiACIiACIiACIiACIiACIiACOQEpPjKiei3CIiACIiACIiACIiACIiACIiACIiACIjAQhCQ4mshbqMKIQIiIAIiIAIiIAIiIAIiIAIiIAIiIAIikBOQ4isnot8iIAIiIAIiIAIiIAIiIAIiIAIiIAIiIAILQUCKr4W4jSqECIiACIiACIiACIiACIiACIiACIiACIhATkCKr5yIfouACIiACIiACIiACIiACIiACIiACIiACCwEASm+FuI2qhAiIAIiIAIiIAIiIAIiIAIiIAIiIAIiIAI5ASm+ciL6LQIiIAIiIAIiIAIiIAIiIAIiIAIiIAIisBAEpPhaiNuoQoiACIiACIiACIiACIiACIiACIiACIiACOQEpPjKiei3CIiACIiACIiACIiACIiACIiACIiACIjAQhCQ4mshbqMKIQIiIAIiIAIiIAIiIAIiIAIiIAIiIAIikBOQ4isnot8iIAIiIAIiIAIiIAIiIAIiIAIiIAIiIAILQUCKr4W4jSqECIiACIiACIiACIiACIiACIiACIiACIhATkCKr5yIfouACIiACIiACIiACIiACIiACIiACIiACCwEASm+FuI2qhAiIAIiIAIiIAIiIAIiIAIiIAIiIAIiIAI5ASm+ciL6LQIiIAIiIAIiIAIiIAIiIAIiIAIiIAIisBAEpPhaiNuoQoiACIiACIiACIiACIiACIiACIiACIiACOQEpPjKiei3CIiACIiACIiACIiACIiACIiACIiACIjAQhCQ4mshbqMKIQIiIAIiIAIiIAIiIAIiIAIiIAIiIAIikBOQ4isnot8iIAIiIAIiIAIiIAIiIAIiIAIiIAIiIAILQUCKr4W4jSqECIiACIiACIiACIiACIiACIiACIiACIhATkCKr5yIfouACIiACIiACIiACIiACIiACIiACIiACCwEASm+FuI2qhAiIAIiIAIiIAIiIAIiIAIiIAIiIAIiIAI5ASm+ciL6LQIiIAIiIAIiIAIiIAIiIAIiIAIiIAIisBAEpPhaiNuoQoiACIiACIiACIiACIiACIiACIiACIiACOQEpPjKiei3CIiACIiACIiACIiACIiACIiACIiACIjAQhCQ4mshbqMKIQIiIAIiIAIiIAIiIAIiIAIiIAIiIAIikBOQ4isnot8iIAIiIAIiIAIiIAIiIAIiIAIiIAIiIAILQUCKr4W4jSqECIiACIiACIiACIiACIiACIiACIiACIhATkCKr5yIfouACIiACIiACIiACIiACIiACIiACIiACCwEgRstRClUCBEQAREYkcBf/vKXtP/++6crrrgi3fzmN093u9vd0t3vfve02Wabpdvd7nYjpqrTREAEREAEREAEREAEREAEREAE2kDgBoVJGzKiPIiACIjALAhcf/316cEPfnC6+OKLOy6/0korpT/+8Y8d2/RDBERABERABERABERgPgiceuqp5aDm+uuvn25wgxvMR6aVy1YQ+M1vfpOuvPLKdItb3KIcEL/lLW/ZinwpE6MTkKvj6Ox0pgiIwAIQWGGFFdJWW23VVZK//e1vCaXYcpO///3v6fzzz08nnnhi+trXvpZ+//vfLzcEKu8CEdh2223TIx/5yPLvXe96V2tLRn1z0EEHpbPPPru1eWxbxv785z+n//znP23LlvIjAiLQEgL//ve/0yabbJI23HDDUnHxiU98oiU5UzbmgcDGG29cth3WWmuttOKKK6aHPvSh6cgjj0w8V5L5JCDF13zeN+VaBERgggT23HPP9PjHP74jxZVXXjmhFIvylre8Jd3lLndJD3jAA9JznvOc9OY3vzl95jOfSb/+9a/jYXO1/q9//atUdKEUePKTn5woN4qCLbfcMq277rrpTne6U3rqU5+avvrVr85VuZRZEYDAueeeWz7fKHNzq842Efrxj3+cXvOa16QNNtggvfjFL04odRZF/vCHP6QPfehD6XOf+1z65z//OZFioSi8wx3ukG5729um1772telXv/rVRNJVIiIgAotDgPaNy1VXXVW22xjovO6663yzlj0I/Pa3vx37O4S1FPWzD+rMm8Joiy226KDz3e9+N73oRS9Km2666bIcGO+AMac/5Oo4pzdO2RYBEZgsge9973vpIQ95SJUoSi86aTe+8Y2rbT/4wQ8S5vLXXHNNtY2VW9/61umjH/1oevrTn96xvS0/6ET/9Kc/Lf9oiBDP7LLLLkt0ti+99NKBGoG4COy0004JBdmNbqTwkG25t8pHM4EHPvCB6fvf/3550Etf+tJ0+OGHN58wo70XXHBBetjDHlZdnViDZ555ZmI57/KFL3yhVKpTDlxFULCjWH/uc5/bNbgwTFmJwegWqTe72c3Sy1/+8nTggQfKnWkYiDpWBIYgsNtuuyWswl/5yleme93rXkOcOZtDf/SjH6X73e9+XRf/9re/ndZee+2u7drwXwJEQSLmLRa1u+yyS9pvv/3STW9606HxfOc73+ngzMDqvvvum17xilcMndYsTqD8W2+9dTr++OO7Ln/ssceW37CuHdrQagJSfLX69ihzIiACS0ngSU96UjrjjDOqSzK6Q/yvKG9/+9sTjb9c6Hj96U9/Sje5yU3yXWP/5nrk5eEPf3hpEfKoRz2qNLsmYT7MP//5z0tlliu3WP7sZz+r/oaxHkHB1RT6cffdd09vfetbxy6TEhCBpSAwL4ovrKGYUCPKq171qnTwwQfHTY3r73vf+9IhhxxSKuDpqEyjLmrMQI+d1CcovP7xj390HEHneRz30wc96EHpoosu6kjzmGOOKTsqHRv1QwSWKQEsXbF6evSjH51ueMMbjk2BgUCsdlCCYKG6xx57lPGPxk54Sgm88Y1vTG9605s6UqdNR3tK0psAYT7i84KXAy5+cXCm99n/20Pb8/a3v33H4Crxsv7617/OzQAFbWxCJjC4HYVBll133TVuqtY5h++eBokrJK1Z6fTjaU22lBEREAERWHoCWDRFYVQwl9e97nXp05/+dOlmE/dhHTatxtQvf/nLhNUEs08+8YlPLC3MVl111bT66qsnFG5YhRDDYptttkl77bVX6VZ02mmnlZYuudKLETcafphwM+r2zne+M33yk58s3cG4Do1aXDe5Tp3UMak7TttEQAQGJ4DlZS53vetd802NvxmVxorzgAMOSOutt16p+G48YYl2okzPXcm5NNYY40het5HWGmusMU6SOlcEFoYA33EUXo973OPSKquskt797neP7Z51q1vdquRz7bXXJkI/MLDQ1kmAUPh98IMf7LqfWPdjTSvpTQD39ChYTTPg+uUvfzlu7ruON0Re9zMAMk8ujygAjzjiiPS2t70t3fve967KvNpqq1XrvA+nn356YrCKOGAo95gg62lPe1o66aSTquO0MnsCUnzN/h4oByIgAhkBYvF85StfybZO/+dTnvKU5A07rnbWWWd1XZRGHpYZWBoQ+yoKH79pSG6Sz0jS1VdfXVp65Q0IGhqu2HKLCj68KOXIOw0a1tmGdQhm7M94xjNKa7I73/nOpevRHe94xzLOV11ZnvWsZ9Vt1jYREIExCOQdMeLrDeMOwgj6t771rSoH5513XlpnnXXK973aOMOVZz7zmV1XX3PNNbu2DbqBei+P6/WEJzwhPfaxjx00CR0nAgtNgO+4K8+J10R7AIW4uwePUvh8VjvCJhx22GGjJDX1c2jf9Iq/inX/e97znqnnYV4v8Lvf/a4r69S5xGocVlD+RLnnPe/ZEUIk7mvrOoM3eF4wsIQS8FOf+lSZVdrPfHMYUKb/wDNH+xqlKy7BxABmQJ33ZFjB6u64444r0xn2XB3fm4ACtfRmoz1jEqBRiiUJH97NN998zNR0+nIg8Itf/CLtvffepUkxyiVGKpdSsJ7iunxskJNPPjl98YtfTOecc076xje+UVpFYWWAcow4Ne9973tLH39MoHErwhVxGkKwawLwE9DZhfg2BNi/+93vXv5h9cX6bW5zGz+k5xIzbGJ9YTVGmesE98lcMHMnsKdk+RHAGpAGH3HumOKbSQ+wruGZY9SfhmEuvBd0POpcg/Njl/NvrEWpZ1xgSQM6upr4vl5LrEFj/cBx3Cc6vHV1Ao1qXJa5RwSIf/7zn1++21Hx3+tao2zHVSYX4iWOKjyH+UADDCTtJcA9owPIc8kfMYToIGKNxN9973vf8pvU3hLMV86oRxg041vvwkzN1MejKDBQfHDfcnnMYx6Tb5r5b9qSuHtHYTDhYx/7WEJBfvnll5cDCygpcBEfJX5VTHvR1ntNZlRXj/crO94FKH88hAYu6rOWz372s+U951lockfkm8ogN1aC/nfhhReWrpqDluEvf/lLuuSSS8q20qDncBztAr7LTKj1jne8Iz372c8e5nQd24OAFF89wGjz6AToMBMHiQ8rL+4jHvEIKb5GxznWmVgAjBqPyU11MdflD2sgTJ3vc5/7jJWnXicz+kb8KEZJuPYsLIuI0YXFlAsWUnUuf3zIUOpiwr3jjjtOPcAl/MlHNJnGpBpl2CBCJxelBabYuEBiDYKFCJ1crL0+8pGPdCWTW9zRCaeT3NRI6EpkhhuYcZPAqqMKDaLc9bUuraOOOqoc1avb12sbnTzijrzsZS8rY7T1Om4a2wnIOmgjn8ELZmQi/lTu+hDzhsk/Fj00zJgRFOH5IgYMSym+Iq3u9S996Usdo7rMOpZbeXaf9b8tX//618tZs/63JZVKBfijmIxCXYAif5999klnn312tYtYQNQnvOPTmKQjuohwUep4RshHldzlmrrYn71R05zVeQxE4Kaex0Cryw9WPLisxUlX6o5r2nbCCSekj3/8402HdO0jTs8HPvCBru1NG3jWsHhgAAlXfZQR/QQrRZ4/vv/zEDy9X3lmvX/FFVfsygLtl1EEaxcUlVEYCMOKrG2CJQ7fHhfaUCi9GKzBXQ+lOwpBXNhQyBK+gu+y5L8Ejj766C4UKLBe//rXd23vtwGuDK64FRmz8c5SaNf7bI3khQFk+ja0/ckjEz/98Ic/LBVdKEipxwYV2sd861AQUpcxGI67MUr+YYVvJO2qT3ziE2Ue3//+95dK2vvf//7DJqXjIwHTwEpEYCIEbCSvsI5cYZYvhT1j1Z8pviaSvhIZnoCNahQ22l+Y0qK6H/HejLJuH4rClCWFWUANn6GaM6xxUtjsXlX+zE2vsIZIzZGT3/STn/yksA98scMOOxRrrbVWYTM5VvnoxcZM/QtrNBWmUCzI+1KJxeLqyJs17LoubR/owoLaF9awK8z9oLCOb2GxvwpTcHWcm5fNOt4daZl1T9fx1hnpOKbtP8z8vKsMebl7/bbGS2EKzYGKuP322w99HRvxLGyAoDCrva76sleeJrXdRuz7lss64oWNghfWWRi6bGa1UZhLTWHWgeW5fA9mKdYArcpgszrOMis9r/3CF76wyiP32awQeh6b7+B9N+u7jvOtoV1Yg73gPtogVGGN58KsRouNNtqosMZ9x7H5c8V9m4ZQN5kFSnVti4My1mWsw12lRRk+//nPd6Rn1imFDfwU1JvmMlpysJhiHce05YcN9hR8VyKf/L7E34PWTb3KZ7GZhnq3rdNW2Mx4vZLr2s5zZ1bT5Tkx38Os02ahPTlIfdWVAW2oCMT6z/mfcsop1f5hVszCveOdoy4xt8lhkliSY80NrSOflNuUXh3Xpr9i3ijVcWZVU9iAYMcxy/WHTY7UVReZW3pBPTWq2ABMxdoGbctkzBq5MA+PwgbTC1PQFqaMKk499dSCb8W0xeLjVvnx92LQJe1D87AobLCl2G677QqLqVnwzNFvMcXwRLMOC/oa3oeDkw0mTPQayy0xTA8lIjAWARsFKmiEUhnUVRxSfI2FdyInm0tIYea5hY2i1t6juvs2yDaLcVWM05mg829uUlWe6ACaleBYZabxYtY0hVkEdKRDA9qsnQpzhynM9bars9hUXpvRpTALxsJMnQs6VLMQlFkxj3RkXSiTWQJUH8d4XNM6CjGeiauuusqTKpdmfddxLdI488wzO45p+w/uEw2RnXfeeWDl0kte8pLyGRlWoclzfOKJJzY+U2YxUZi5emGjiR3o6CTC/6CDDiobf73uF/eq3x+NIm8g9UoHhUiTmNVJYSP4XfefjvkLXvCCspFHJ4L80jFFedfrWmyX4quJdlFcc801hbkbVww33XTT5hPCXjoONvpbnWuWfGUjOdZRKMGa7k++z2ZZDFeY7CrPkF/PRtnHStysDKu06DjxjTv33HNLBRcM65S2ZiVVmIXmWNed5sm8ewxC8F3tpwQz66uxs2Ju+4VZ/xW00fy++JL3lmeB+mKYjijtwYc85CFd6TGoRL1iLryFWRoW5j5UWCzP8vpmyVBY6IDaepr7yPdIMjwBs2DvGsyz2FbDJ/R/Z2yyySYd99UseUdOa1onmlVh1zdp6623rr0cz3asR3jmUWLwTV7OYkHcO+4zdRH1xDjCgLbXLSjBuCe0V3xbXFq4kanfg159Ib6h97jHPcq6ijzaZFZVHs0Cq2Cgkzqa781SilnNVvUjdSkDWpLRCEjxNRo3nWUE6FRSMfTraEnx1a7HBcud+JHxdTqwZsZcjtSiNLJYEIW5QxQoA6jw/bh8yXnf/OY3hy4knTZGkTw9c+UrrrvuuqHTyU8w94gqTSwhzP2lUSHh12eJNRv5MPPkKg22m0l8fpkl/40VSMyrBQyt8sC9ivvq1lFM0yHhw3344YeXitDYQa4Ss5XYSCEtlJPzLBZfoUNBUMcHK8ZxhfegLm1GBm0ygr7Jc1/qzmfbMILy2FxbCxqwdPZjmv2sibAmicezjqI4V456frjWMcccU8QR3Xi+FF9Oqn5JAzbycgUzo+4HH3xwYe6jpbWWuYqVdbK5B5YKRxQ4WA76udRZ3PNcULb6MSz5ZqMgstgllVWe76dTPM1OH/WrXwtr1FGFcno6voxKNd9Wt8QCple9N2p+pnEeSiELAt1VTi8T7/W4nVHPN99dLF48bZYo8ocVcxertShE+cqgUT/BehHrxJgPX0fJPg/3rV8Zl3K/hTboYmlu0SNlASVaVNCjIMAyvE2Cgpb2mz8zLNdYY43CXNt6ZtNm0+169lHQXmEWYctRsFiCWWRIH2AU4ZmxMAml8qhuICJeI1/n+zdNQcEZr2kzIhf0Seok97bgPPoZFr+07vCpbbPwKh39bSzr2yxX//n64so//PfvX7OxF6jFM1xrujYJbVyuBDBLpQKw2E8FI6x5w8krFSm+2vWE1JmBc69QEPUSGg69GqSci8m7BcPsdXrXdj6I7grF+VgtNDVOuhJo2PCGN7yh44Pmz2Fckl+eSywV6XjycWak0AUrtnj8gQce6LtmtkT5FvO0wQYbVHmhwWdxX0qrL46hUwRTC4xZjtpzbwY1U7/gggs6rkN6fPjnXehUYXUVGcZ1FAzjChYbMU3WcbMaVJmA20h+vv8eNW90jrEG9HSa3lMaf36cL7HCHER4p6PLsp8vxVdvejwXjC47K0ZyqWt4t+ssfnIlFufVWXnFK2LpGtOyGG/Vblwf/drkY9puSxbnpboeVqouhx56aLHrrrsWFlfFN5VLiytXun3iso8SEItDFFf9Btu8TPkS5ewee+zRcY02/+CbhIthXg7/zXvdSyE9bLle/epXV9chPMKwSqbcSsTziIJzGIsx8o1Fad093njjjQuLTzVs0Zbt8RY3rrqn3A8GYEYVLN79nrJEEdk2yRUU1KcWN7aAA5Y7fN+oU3Kh3qEfE8tHG9HiHeaHLvxvi3nWxWEYBQ/tR9pShDyAf2Tq6wxS8O1hoL0uVITFuJw659yroenbh5FHXX2E5epSC99B58iSwdI2ynVmNLnjiddWf+f9tD1WlFJ8tfGJmZM8YapOg9StdCwoYGFTuna8lLyYUny164bWKTa4T02KLy8BcaVipRvX6TgNYv5LIxirBT+XjnHu/uXXG2WJgih+cHEPO/LII0u/eCxycC0aRGKMKKwpZi0oFpwZy7pYPLClo+vv5Ch5Jp5AvA6WYhbkfJSkWncOcYBi2eI6ZveDWGU1FYr4FDFNnvNBlV6eLvF0Yhq+7vtHWVJPezrksU54d/P6m073sG6fdIj8Wiyl+Kqj/d9tTc9jZMg6zydWX9Rnvo/Bpjorr/yKUeF01llnVbvXt1iFnpYF0K22T2uFzqRfjxhyCKPsHiaBZ5+GPfVY/hz5ef2WdFDodGERS6eXzitWLrRP5lFQfuWd8siAWGlY740ruDV6usPGX7PJUapzPQ2W41j18TzG77ini/Jr2Dp1XDbzeD5urLmlPqEeRhWbubG6x7xj/VzmR73OqOfZZDxd1s0MguaDBdSjDEblClSUG3msRJ65LbfccuA246h5b8t5KLstMHt1nyl/nUsdsXGJl8lgOLFkY7sfJVkcaPH3Ni4JReLCYCGDN76fZ9YtCfk24Do9TnvWr5MvGSj2a9Lu6Sf59whr3Dg4wDpGBQzooGDl/ZuGUPdFjxTYYcHdNpHiq213RPmZGgGbBa2qTLxSkeJrarhHSpiPlt+buBxE8YUZdHSvieezPohlUD7SQgymSQvxQjxvBKEcRPigxA9Z7nYGt1wYtcINrG5ffuy4v+kMxlGnYYIN59emYUGATDo7dDDiKCjuTs6OJfFmFknqRhi9vFgAjiO8Q54W1mWjBGa2GZCqNDwtluMIz7YH8qVRVidYgsXrsY4SdFihERw5SPHVm+C6667bxdzvAZ1+OiF0vFASueImBnVHOT+IxM5MjMkYFV95R3CQdIc9JrpKueWZzS7ZxYD4X8RRiYoy55IvsY7Diov0cKcbN0bksGVaiuNthtkuRpHDJKxVcZ31NKM1cb/yobx1xaWfz5LOWfye9kunbn9de5K058lqr65cS7Ett9AifEGdDBKMm1AB8d5iSd4mqVMOoyDl+WPgJsaR9XLUue/hXhzdsf1YFM+juP62idEgeaEO9TKzRLkTlVqkQR2bK+KJkxZjJzK4gqU4FoZvfOMby3N4Zz3tqPgizegGifIR69P4zeI7gJvfJCXmZxBFP2Xy/LP0WHBMoGIziJcB+uN+FKwE8Z+UJ0ssO8YLsS+w6qqrTmVwehz3RCm+4h3T+kITyOOVUBFI8dWuW04HKlbQvj6I4ouSnHHGGbXnk04/FwlMyqNFC+s+ujNJSnxwvFxN8aloMGFhQAeSThkfWGZpIVh5PmLKhy4XH1HFCgMT8WlLtNygsTGooIBB0YW5P3G+8hE5LEe844u1hLNjySjWIgn3NY9h4eWFy6gxUFAgejosiY83isQGX0xvlLTiOYzQkt6HP/zhuLlaZ6QyXo/1fKa86uA+K8QI9LSk+KqHFa3wYEW9Q92KRR6Wqb2seKKr+qCKL5T/fj/8PSdXrvhCSTttQSHleWBJsF7q37rJEahXifFCvYULHco+4pkwSr/22mtX6TDaPY2OxbRZDJt+P8UXPKPr6LDpc/xJJ51UcSW49CCCdUfstPr9RRHWL5bgIOlzb/NONtegnl4OiohBGPU6Jg4+wCy67TGIRngHBu24Vwy2MGMj2+skKiBhj4KoTjifSXiYrOD8889fEss8FDP5BB7M0B0tbmjP5bP4EQqiTlDs1NVJMMSCG0XHIgoK0NytmjrahfvJoGGvWIoM1DTFwo2KJld88Y3DUi/2CbwOyZfc417Pp+dxmCWxLv0ag8R35Xvkx/tykIGZ/9/emUBNU1T3u9hU1GBEOUaRTwRRQTDRgHKMChjNgooSQQTcohgXxAU1xBWFaMQlLlEUNxSX5A9RIiLi+onGBfWIQTAswgceQyQgoCjKOv/7tLmdOzXV887SM2/PvL865317q66qfrqmuurWvbcwR5/1GIfyMInWliYsrcC//MdNvcNPvb7y0TUOV48rwZeT0HbpCTCo8kbBtxJ8deu1o93j7yZuRxV80biWOqOeFqrJpcBHi7rg8dji12UWgQ+r58MHMwZ8ojCAYtBXMqXgPnzJENh6OviWiR/eEkd8FswyxAEsQsZSwFwPkwYEdfhcGuYg2Z+NLcvPE1gt0s/TAcxn/Ep5Ltq5ktNff2Y6xOM+M2aocXUo/B9OGnLBo5dr0vT8PtfocE0bP+/baH7seeZLwHvcUba77757VY8k+BqkRRtKe+KccZQ7ap2LQkUXfGEKgsCWd8z12AFmcOHtHLPQMbjgC0FTvCfGaWsfIZY/L1sEw/lAi/O0OQy0Sz4J0eBgdtvTYaGWtRBGEXzxjuNAdVwuTIw411G1fNGa8XvilvfXVij1KcmLyRrMpBQGCaxfv77vvaBFQ/uC0Js2vUlrf6+99upt2LChL0H6OVHYERfV8Yj8VhGs5ZpV9FdOPfVUjzaTba7BTd+05PcOk/BoyjhsQhSNGvpXsU7Hfb7vbQh2ZwJkwkRzk9C4ujDac/H5S/sIwIe5RYi+d5koRgMxai2V0vRzCI/oy7b5e4/CUiaECfTvefe0o3xL0Xg/9NBDe0wENPXLKCPCYDTq+b56meOW/mbbgd9yPg5jkaFpgwu93D8Xwq9LzUH9uEGCr3GJKf7CEvDBVfzRS/DVrddZEtjwvkYVfPE0TR1e0qEDXQqoKsd6wf6s/EREjS9W+SGgTYFKc16G/JhZnI9+9KPVPcxexusnnXRSdZ5/zHrGa+xPY35YJzxkJ5YfvwTM0uF7ANMUBs/RlCgvW9Mx99AJYMBMiCYScFzWEAV8OZtXv/rVYz02nSNPg/rDDPOkoamDNWl6fh+CDTqmUXjr19jGxSb8WVjdatJw/P/6/ZHga5Cgs3HOaNvEgL8ZOrF8T3O/c/hD9PvocB9yyCEDGoziw8MAAEAASURBVAqYmLggLa40eu973ztmUwn/PS3aRw/UEdq3Nk24WT3N8ypt0dLAvHzY4IZBdLwXs12eE+0VBLrDNA782RZxGwVf0R9OZME+bQ91Z5IwruALDRDqX14Gjhk8thVos6LgJeaHqb7CIAH6A5ETggbaBNrieL60j2YUEzkeWGwjxuO9E/iesJo0377cN2SMz/4Tn/jEvjQ97Wm3cYKTfNAc8vKV0kbDFDNqBHJNms9+H5pdw56Luo8T9ibtN09nEbZ8Y6LvSNqY6HcXoSY+fBGu08/E1DV/x+6zkedlkgNT9X/8x3/sHXzwwVW/2Cdf8vviMRMwCFZf9rKXVd8CtMGaVlqclmsUgkZtSL6nsUxN+/SZMdPH76ZrHb/jHe8YuDdOAtCWITBloaU2AgK7WD6sBaYxL8+FXi78Wn/RTWMXV4KvsZHphkUlwCxu/CGyL8FXt95mG4Kvo446auA9+3tn5igPdJLy2cAdd9wxj9bacVzS2rUCEOiUVKpR9ecjhio2H+s48GIAGFdd4xlccJD7AOOjHQVjrT1MSCiaHLh50mGHHdb4LvydsGV2CHVozIbwScBv9eyzzx5wHIo/Dzgx45kPukNRFn6X30HTSrSsigmbUQKaNrFTh8nINGFWgq+VyhT94sV6g3bkJAGhNulI8NVPj/Ylmt34SmsMFug4R00w+DH4iuaJLDQR309pn4Gv++6J7gee+9zn9hXmOc95Tp0WAzl8FiLsdBMO6jUDl1GcCzMAwEwzmhjFzBhIlspK+4qZsLer8Z58n0FRTAPBR5z1RoOAge2ov908/a4eR8EXE0h8OyOHuM/gZ9gKZU3POK7gC42QmK/vN/mSasp3lPPUQU8/bnn3Jc3AUdJc1ji5L6LIy/cx9WeFUz+OW37zLvCmrYq/L4Qj9HsQDkTBQby/aR9N6jYXyck1AWm/xvEDhYAAc1n841E2tLhy0/4zzzyzbgubnovzmF8jBGlT4DvP+pkLsqgDw3wl5m05z89EImO9YStnO0P8qNF+IOBiAQw/75PUs352TA89T7ZRWIq2IIui8Pvge8K3eg+zDskFYiWXGFGrjXQZEzChhOYY32T6lZ4vYw4mg6YJCNE8Pd9O6nKlSeh10tnjC714Jgm+pnmzunehCJS0eiT46tYrbEPwlatFe6PLtrQKDGZ0MQ77fPRmFaJAgxlJDwzg6NShyfWlL32pmq0bpp7NfbkzfgZpdAroPMZnmsbMxMu30jYOTjBhJKBdhBo4H1nKw2wdjoURkqFZwsdxpWfM82UQ7s6082vLdBz92sR3yf4ozpnRNomCCjoz05qMtSn4op43ObPP3yM+pnIGHDOgGGXRijw9jjFbk+Crn0w+aUDHH6FjyUE4/PG/EwNCjdJ7wtT2aU97WmXK5P7B+N1jJuLxc20gOuV+bdjWNWBjOfJ9b38wecHMOk4gEDfXnsVfIf4VXTMtT8+P+T3hkB8NuCZGedmpd87A01nkbRR88c4YMA0zxaI+jTvzH78tK5k6UgfjIC7yxydb2wGNvphH3B+lbrZdni6nh7li5OP7DOBf9apX1SZ6X/va1wbiUc/wceUhrnzn6ZS2fAPRPOc7EU3+87i0T20E+lq5mVzJB2ueF78JVsB73ete1yj4g99ZZ51V34qAI2pD5c+UH8OZCQa+u20K+uoCtbwTf/fxWYYtYBCtAhCSoVUcV/2M6bAf++Mcu48vHuWHP/xhXQ+jdlTLj9mXHPXHy0j/Jk4s9UXMDqLmaVxNmfHAt771rWrSyNMdZXv44YdnOYx/mLsyQWDnk17jpIZPL9fw8u2kQi/yleBrHPqKu9AEouNd/+FL8NWtV9qG4CtqHvl79i2z/nmgDvh1355xxhl5tFaO84Hh+973vpHSRdOppOHEACrOYjE7iAq3PwdbHGXOIzBI9JlaVnuLgQEiauHTCl5immthHw2R+C7jfkl7MTKJQgwGgm2YPbQp+MJ8mQHCKIEBZHz2fJ/6Nq4mCWwZFK1miIJJHPyvZsB8ZFRzZGbFceie+0xEmOXvhoUqMO/LhUz+jMw0e1xWay0FTJmaBEqUAY3ZUZzzervk+T3sYQ/rE2qhXeHX2MbVJfNyveENb+jtvffePcwf42Aj3j9sn/Z6mMZCnl/Xj3PBF+VFwy4f/Ecm4w6q4gB4JcFXrm0T80Vruu2Qf9NjfsMG6G2Xo+vp5YJs/DZitsh3KReERgEZgp1cWx1hQNMKw/gyol1AAJKb9Q8TgKBBNW1ACBrbUAQXCNAJ9OGimSb1htWKEcjhwHyYsDjWKXhE4QFCjvgdiXGH7dN+zcpUb1qO3M+7Y5LAnyFfqKKp70xfwO9xn29o2b7gBS+o+qeYQ+6///497t+wYUNV1Ny5Pf1UJmXRrvK0Vmp3qoRa+BdXEmYCe9QQv0WMAVh9El+mw8zP/dlKW/Ke9juFMDlPu+m9NT1n20Iv8umy4GtTA7YUwRqmZCY/c38WcxKZTN1+7vkqQxFYTQLWwWjM3oRcfdfM5CmZKnHfOetYJOsg9Z1r64C2IAYzvYiHA/smrE32IUzWOayu2Qe7+k3bLFV1bJoMyT7oyZZlro5NayLZoKJOxz56yQZq9fEsd0x7JpnGWXrXu96VzL6/LyubeUs24Os7N+zATJKSdXaTCSqTrViTzP9PMnXsZCrryQZUw24d6dqitMmm0ZdssJasgzrwXObrK1nHLtms2sA1G7gnW0mtPn/EEUck6xzXx6u9Y32PlP8WhpXJBgbVN9T8VRSjfepTn0rm0yWZOV4y85BinPykaXrmp9b0sWmfJuvoVgyoK3B873vfm0zg3sfFhBDJHAonE6b2necg/jatI56s8zwQhxM2AEwm1KqumTlhMu3PYjxbYKR67yaUS6ZJlEwrNtkAMXEPf6MGW74+mSZFHd38syR+EzYorc5RnhhMMyIe9u3bID2Z2VHfuXhgPnqSmWwnM81Mpm2QbAASLyebmEm0y5OERWm3zCwo2YA+mR/G4mPawCzx7eO9tB1Ms78xSfND2Xht0gvUR+qL+cYZSMIEgIm2zgQgA9fW0gl+t3EMRB/ruOOOS2a2PPBdMo2mtH79+gqPCbeq35oJ0ftwmdA8mcC7Omdao4nfs2mCJ/oZ5g+y+PuyScJkvkL70jFT7WSLBCVzQp/MVUTftXEP+AbZZErVRnEvv3GbsEn02eifmSZRlaRpk1ZxTHhXzMJcOVTtpgnQkglfBuLQrsZgk51VO8NvjXYU1k2BPhptsrmTSObbrIrWxTbFTMur92Ka/VUZ+dbAl3pB2Qm8c9MEr/b9H89uAlY/THzTCCbkq/oG9A/yYJM1yVaArU/Tr6J+mZlyfY4d08Sq6g/1a5bBTDXr5PN6X1/43x2+RTb5lEyw1/fe4xggv4djvtOMIUywWPXLbRIp8Tsy0+FkC7QkvmG0z5N+pzxPxlEf+chH/LDa0u/K31tfhHDw/86+OZ1x8c3hTEp7bb9J2m+XTfrOLdUBkrllCNhm24uZ+98s/Bks8vuQxlf33960Gl9XXnllo98DZnrygD+p/Lc5Sy1A/L54fqhhl0xe0GDAhLGkica9+LhhBtwDZn9xtsfTZztLk03Pv40tDjhxFsr7wK+QfXBrTvF50CJpY2Z2kdrkkm9CZ8LMeO5/iGN8IXkcnIZPO3Pn77gtjS/39YJWyKgh12T058u3mFJZZ37UZFc1XpypX02Nr1jH0A7EPISAJkZcNQttpahtkMOjnvn78FUd8zgcoy1GPEyPfNY9xsPUCc0qvtnD8ov3DNvHcXTUxCBv/Hd5iObxmEUOC7TPaPKgeVFaKQszdQ/EdR5sMa2dxsSoi+1WSePLn3/YQjO8j1Hb8nE0vuLKmpG9Dea8WK1vWVkt5hX30RxZ6yH68oPNMF+T7heUb01pBURMor1/wBYn9qOEU045pe8d7bPPPn0aWKOk0RSH1Sj5lvl7R3uLNsxDSfOFuPQBWcUS80O0mvMFlfIVLmmbo7mnp+9b+s+UBa0hNGrf8573VP5S6VuhQVXSuO9im3LkkUfWLOHkzv5ZJMQZ77rrrv7Y9RaNTr9O/cn7RtQd0rJJjx6aYYwJ0Mrze5q2aBejIT6PEP3W2eRlj3eKCSz1l7KzuBF+BfFd5r+DpnLzvWHRqbwdnpcmKpp2edmow1HzsYlpSdPrRDN5bCN0WeOLmZKlCLmKb14RZnVcahiWAuiEDyHB14Tg5njbtIIvBo9Nv6fnP//5A0+SO7Xn3rZ8PQxkZicw74rlw2SGjxICKhxwNgkW4j3s52rXcaVIj8sg1Vd0KZVlVucwXeC5UC1nQI3PF5z8Mihm0MdgByeX7j9omN8Nf5a4pbOICvo0YdHaZJzbRgZxP1cd59iv06lDyNRWaKqf46SPSaw7wB5H8EUnNg6y/RlLW9LFObrN5I5TtLnH7YLgizYimg3hxD6GKBSDNW10U+Dd+vsYJvhCOIGfutyBLkKjXOCPQ3S+3dOG6KjYy+imUJiF+DnTiBgrq1heXwzAE2Biw9Nl22TS6fFX2nax3Yq/ScoXA/VhmHkZ/nVKJvwxDfZHFXzxnWkayObvJs9jmmMG0vE9x33TVJkm6YW/F6FzFBBjZowvUwRPmJjl5tIM1Okn4cszD9QnXz2a94xvvVGDC9S4D+FBLhQZNZ0YjzQQMsU6R/uR+yuMq9dSNxibff7zn19RABDN9riPb1rboWttCv7HIs/Y18NXlf+28MOYB0yo/Xr+HSNu9Cnp8fIt6eLc3rT0qnanrVUO87KWjpmwi+Xh3VBX4rlR9hF44guO3wshn4AZ53dTKueo5+jzx3fpZc9Nl/P0Zin0Iq8uC76WxtTROgaVWq7xtvc+v5CrxM4vZ+UkAvMnYDNsyQQqxYxR3Y2mX0TCfMxNCONN973vfeNha/uoJJvQp04P8z2bbauP4w6qx6g5m2+aZDN4fWrXNqiv1MBjfExrcrNmVN/NL0KMNpd9+9jVz2UOaFvP0zqbyZwUJxOuJetET5T+orXJ1pFJ5nculUz9TGiarKNWqa5bB6fPzNQEwWmPPfaYiFFbN/G+MFnAnADTL8zLhpkjN+VrHajK3IFnNd8oTdGq8zazXZnpWQevMmlD9R8TEoVBAphKU28INpNcmU7HWLRBHmizMDvB7IN3YIPaZIPUZH4EK7MJTC88YMqDqbI5jk8mfE2Y32LaZNoNyQYwlUmFOQ9O5vi5OrZZ7T6TE08HE0dMXTGhdtMVvzbO1la1SjZjXv+GMBPHvINgArA6qXFMsjHHjqby+TfGZuTrdNnBdCsPNjipvkOYeGGygskcZaP9t9W6KtNOv2fR2i1MqzBRssFbH2N/HsxobXBf1Y+clccZZ2vag5VpYemeWX4LMV9rCiUz9aa4y3iethdzMgLvgD6a+bdKpsFS/Zk2WDLH9rW7Bn5TJjxK5ttvAIcJyhK/EwLmsnzbcOWAaTb9AdqmpkB7RH3EHJD2atpAepjq2iI0dVKUwVaWHPidU//pV5533nlVXJtASiYEr+9r2snNzKdp/5ry6FKbYitPJvqyPla2Seg+Vx1xTFtqL0499dTqMfnWc28eaIswsaffjVkkv1ubuKjqlJs7YppOffSQm8H7+VlsTz/99DpZ+js2OVT16+nnOpM6gu1QnzFJJN6xxx5bXzKNrmTC5voYly4xzMqVS8yDfd4RppPx+8p5+O+3337sDoSSeeOe222S9r//Eps3Rgr2ohVEoDUC0vhqDeXMEppU44tlrDFRsfZj4A8NIVS982AfmYG43I+j41kEZhm9fJTVOuk9+0DX57jGii6uheBlMF8xfXFyDR9mHZmh8rR9+9CHPrSe8fG05rHF9NLLUNqijcNy46jxs0S0+dioNN4wZUO7hIUFUJG+xBxjo9puH89iesxqraWAllyJJ+fQCCNYZ6KOA+NxHb6vxLNJ46upXCudH0fjy8uGFg3Oi1dKO15HwwhTEn4rXQqrrfEVVw5FM6dkeh1XtoJpqZ01f2AVVkwYIvfSPtplbnKDBkMpTukc2iHTBrQJPG3zGVgnF7WScLo9SkCbMK4IholtKXh+bDEbZbablcMwnUHjuMl5P/Fx7sxsfZeDDZxrprnGl5fb/NYMfOsiFxvsetTidlSNr2FmW7PU5LZBZ80gPhf7cZW44sMt8ckTTjih5kI9Z9EDAn2fnBMrqw4L9OFcewQzaEJc/ZHv3ctf/vLGbx4Lb7CARxsBR/UsJOTPwOIZ0f1EKQ8WGfL4mKoRKBOaX5SbVZcxkcRslvNo62BO7ffg5mGZA+2ca//znjHVzAOLjjiP3JUPJqB+rakt9vQYZ0RtcL4tfi99aUxzeQ+8D87TTtP/mnWIfX00Gz3QfrIyqQl6ezjshw0mvq7RRbzo7sSEsn5rtTU/W/Xz8U2ZZ4huN5wx5pylvlhJ0+sfv35j76e/uKX3Xy3+XXL1LX2rRJ75k5vniWRoXoPifqOmIAIisPYIMGNgAp9qZg/tLWZqOIcGCTOEcdYt0mEGEO0gEwLF09V+7ujUIzAb13awlq7S3PJ0mZHhOZj1wAEqgRlOnEaj0RVDnNmyQdmAY0i0DGw1oXhLtY9GBk4kc+eSeUQc0o/qEDy/t3TMu0EzBA03Ase8I7Qr+EOjwoSRpVsHzjHza8KwamY4XkQjwoQf8dTS7+PYn3dlHeWBZ7VOd6WtEx07o22H4+VlC7x7Zm6ZuUerkYUQVgpoJuHEGM05HLbj7HatB/OHmKwzXWFgRplZWNgS0ADjmHbFzA+rc/4vd/rLb9k6t9XlqPHl8dniqJk2AS0mnFz77x8tLBuwVg6Jmc2nnTaBVJU3mmAeuIZT+GkDjqZxqk2biON8D3FGmvKsFOBj5uZ9jv/dWT/ahrR9OKbOnVOjAcffqAFNSRwy42x5kQMOodH0OfDAA4uP8eEPf7jSXOD3PE3I62ZMC4fqswpoMjYFfmdrMaCpGX+zLNTCogcEvuswi223CcOS+axsRPVV0xrle4ZmO205wTU22Udjh98JWvUsCJMH2pDSQjB5vJWO6Y/Qr0KLjXaNRTL4W0mj2Mz766TRRDZzz6r/mreZaC2hoWOTEAmtMg9ovS5rMD+OleYn7TCaSvAxU9iBx419Y/qVMdAH8kD9on/P9ybe49dZ1ACNL+KgaRw1rfjm5f1pLENYsAlNwdgf9/Ta2NJ2mXC3TsqEd/U+7eckTvWpWyYQrDS0PTG+KeZDrW+xF782iy2L0GCNE4O5PKnquPlYq0+XNL24eOGVt6TXf+WWOt6y70jwtexvWM8nAiMSYODqg7QRb6k6WQz+m0wXUasuhVkIC1hxjo6dB/M3Vu3SgXLBFx8pVjCMpkUe37c+wPRjBqV8xDygHo2QzYPNuFYDS8wJSgFTI1YiQkW/zYEBKw254IsOoflXKWU/0jk6y5hFxMCKRKMMUOM9y7DPoB2hTewQ+3OZdpzvVqaPvmpTfXKGO6yKRd0rBUwdMRdg1S0GJb/5zW9K0cY+hyCQeoX5R95RbUrsm9/8ZmV2xW+GwUqpU9x077KdRwDFYJGVQalXDBbpeLOlsxzbkfzZmVAwH16V4B5TNTfhi4M4VpXG/ILfKZ1fF3bFtFgNz3zkVH/xfG5ewqDDV7KN8SbZp67y54H6iSDLAxMSwwIDXuqdmy15XHhyjVXSMPceN9D+woqJAQZ1rLgFN4R1yxD4zmDK2STEQxCJyZoLRyZ55mG/Z97zrAJClaZQqvdNcZflPIIM3je/BwICTdPurB+Pb4U5565MXP3kSgIFhOT8RZ4IsjD3Ij8Pw+qAx5l0a4tgJFwLUH7aTVYu5Tc6SsB9RQyYe3vg2Wl3WFkS9wS0naQdwzy/5zHfeezTJsAD4aBp5TausIkw0APCqxji5AWTYkyU825Mm65iipAVM1SEXbhaoP0epZ3mXZMOE60Iy1aqp7FM4+yzYiVm7x6i4MvPjbqlLeU7xLOW+lu4DbAFZqrvzKhpThqv6ffBN9cFX+dfccvA6o2T5rfo90nwtehvUOUXgRYJ0IAiPGoakPGBYnCExhaCpZU0guKHMhazTQGQp8vA0gPCK9c4QdPCnDcnZkcJzPQh+KIjhzYbA9GoNcAH3Zx9Vh0vfMEwg+4degafaAOZOn81WELzgIAmgql2V5oueaeQ9Agetzpo4R8D2raCD6pjevPyURDz7MI+M5loMA7z9cGMafT3MI9yx/o9LD86YQgI8LXURoAHM+QIvhhcUfdXCvy28BVjZjfVTOgsfu8rlaEL1xF6MZDDBw8TBKNo2+y+++7VTDFCr9JgPwq+EOIQrxQYeOCrh0EEPmbyQUyclGCgO+ry56W8VjpnK8f1LQXPAHRYYLY6F3oRHx98KwXqGj5ZEPAwIcPAnT/ydG27ldJY5Ou2am/lzwwfcXngG4SwBJ9pk2rmICxsClG7qCnOpOej4CVPYxyfcfm9i3qMcMh/wwiZcyEOz7Vu3bq+x4saUX0X/vcgCrz8OlryaJJGX61t+O/y9Etb2kueaVzLgDihShuAb0X6tNR1/CDlz2dmw3X2xOc5lzXQx6MPwWTWMD9twwRf/t6ZJOfbTkCrjm8HE6donJrZcTUJN4wjk7ZMBNNGI4jkeB5tMxrWHmjHmr6dxGFiiElrJqiYTGAbtV2b+mP8XhA2IWTj+43/wVwg62Voa5tr5nm6fEc93HurjdOf3GPj9I1LZzc54Xl1fSvBV9ffkMo3FwLMAMUPe5uZ0rC3NQhts1x5WjhQRiWZDx9OkjEfQJhDZ5ZBE50CGvTSYCxPy49LjsLpfIyThqc1bEu5Ud324NpefoyDVPP/VR0eddRRicEBmjGl2SgEZQj4+LibP4CKAzfSeaKjhNAMoRrvlE6ECwmZ6ULQh4mPmwcwe4XjfEIpr+rChP9KjoQR0FFuhJd0SPhj0IkAj4EDgz86L3Q6YigNZoZpxcV7l3Ef5+CYPObq4/6s1J98UOHXVnuL9h91kc4tJodtBRzeoymCw2NMf13TYFj6CCq4h07yMFOlYWks8jWczntAmwBm/CbpQNMG0q5Sj8zXXrUgAXFxJj3MKTNtiodhM+Pvfve7E38EhJcIQnwygHPR5IM8S8Jv4rUR0AKMgXZomsA3hEExf3yXorYtAgFv66fJY1HvhQ3fQgSotvLdwGPg9Nz8FVbaH5MIpIcN4mYp+BqW9rAyDQBYghPmS7cSpPMoTNI1afjF98uEHAKGSUJ04s39ef9hkjSb7onm0U1xms7Hbwz9blvNuylqJZCI5pq5KwomGBBiLEuIGrjDnon2wUOsP5zjO8EfgQUPmNzywPeFbxOaTvSN6TshkMF8kLYI83NfpITJ5Ojcnu8iQibiI6CcRaD/S5/OA+87CgDR8MfihbEPfWgmrYYFBHV8f5hc8S2/L/bRkCTQj0RAZqsdV98oxhWzCE1Cw/gM5HzQA6jPNw0Iv3a+y8Zp7/v2u39pu5xbbzGbZ5+knEvzq2Zm023SJwEx6T2oEmPqpLDYBFABnmQVtFGeumQyNcp9qxWHARn1uo2A4CwPeScqvz7uMbPY+LlwARQCqlwTDcGXLZ1cxYkDPvIyZ5/Vx9kcXVYfMQadCLDwheHaLfgxwEdBNP1jRRs648wqeiAOKvR0RMmTAYivOMUMkjmc9KhTbyNHPtQMABFyDZsZxxyUMiGco3weSkK0aWfRF7lNpoNC540ZyZwnvw80qroeMF1rU/DF89KhY6BF3afTSz1ybcgmHgiY0XRiNngtBwRLcaAQWbgpNudW+t3FGXn83zQFBJRMPPB7p11AiI9PQrRfEbxFM6BZm/jQ7sSANhe+xpoGlqWOPAMoBDZ77rln9X2KkydR8DXtBMMit1vOmAErGhisphYHsn4dEx18YOK3c9zB2LD6mZvPen5tbIf1o9aS4Iv+DgN0fvtomueTfJF17CMgbB7WXsT78n3cQ3ggDZ/Y83Nd2eba9qVy8XtAUw63Ba49y28gCr5opxHswAy+CI1yIVAp7aZzi9SmRJP0Yc/MdyQGBFb0b2lX+MsDrF3whYCMfgETQ2hh8S1yiwj62nyzJhXS5vn6MW0dvrc85GXkWRkD/PM//7NHqbZMLtmiCNX3iglPD2hTDeNDPIR/jEvQ+mZyi+/8pL9Bz7e0LX0viRc1vjhuEn6dc/ktad0dN0qPmbHwizJ0ISyN4IsXzMd83qGp4zbvcig/EegigZLGV1MjPWn5cUxMx4JA2jjlzn+XaFUgyOJDizCDGUs+ZsxE5ZoOdPLwL4NJJB8pOkEIEXwWJ5YTAQjPiFDNA7MszDTiKyMOOobNWPu942xzbQ835VwpDZ4pdoiJXxr8TPueFr1NRrsR04k4awYr6hZaFV0PaOzREXXBa5vl5TeDIAtzUAS/uUZPnhfmvmgaInxRGCQQBxvDBAvcGdvUvA1ACInAg04+7Q2aIZimM0DG/xs+TRhwoIHnZhvUZXyIzTLkgi9mwl/3utdVPlBY2j5/DsqMNi0O2VlsBO2AUU2vow+XSZ5p0dstf2YmgNBwgJ8PKv0aW+oJmnFxMBevN+2jlYFWacmvjU8UNd07zfn4Lc3TafJxk8dbhmN+twiqmUxYyTQvDrLzfs6oLBBmxvappB0+alqzjlf6LjMuRFMfIQQCLyYB8oBA3esQ7SRm6QSEFWigYb6HP9VJBX6L1KbE/kLeT4zccjcm9AVK/UgmDnkHUfsUqwv+SgG3I0wcx8mgUrxxz0WrG/p29P/zgLYwCxxgpojFC2MFxg0+yfK2t72tsojhPvqFwwRffHvjM7MoEm0mbiPaDk19depdHpqEX6edZ25bzHXxY3acreZXXp7VOF4awVfTi5811NXKd9bPpfRFoA0C0SzH0yud82vjbvmIIJTywAAbjatSoPOCmRErBqEG74FBAR8IPvJoqOEfDNNAhGOskuQdIo+fbxk8oKodtQ6Ik390SHO33XbLb2/lmJlOTFWZ0WLgR4cXoQ0z4Wip0elFs40PPmUY1qHxAvlsqB+Pu12ttnG18h2XzzziU89zDcc280ULBy0iBBQMEIYNTuk0SvBVpk/b4GEcwZcPbGm3aPtYUdOFD5hgIAijXaJ94hom0Azy4sQApt2TDui8zMO2COBKbgRoH3GKTLkZmOamwwhWKXMuFMvzyjUOp9X4Wq32Yxb58ntD8w8ny6WAyTK+jcZx7o9wAW296B/J00bzeFY+bZomtqm70YTXy7KsWwbbo/qXjJNtkwq+MFd3bXqY8o4xW2N17C4HtIYQYFx22WUrFpNJSgK8HvOYxwyY8SP8Y3J1Umfos/htr/hQFmGSfBH8eRjWT8Q00QMCL4Sx3/ve9yrLGSaN+aPd53c7ap+fbx/CpmG+tzzPcbYIO+PKyQcffHB1O31/BGCYN6Jphi9MBMq4vlkpUEYmFvY0DeQ88A0uLRSGn1S+9W365yXvpvfc9C1sFH6df3O6xdLbZ8mFX0sj+MLueNqBWl55RzkuzTCMcp/idIsAMwz5DEZbJUTgsFYDH7I4gwQH1zSYlgmO6VFP99ns1772tdXHtyldNAbiqo8ej07cYx/72EqLh0EWM9qoZI8jpDrmmGMqNWk+drGz6XmwRUjXpmZF7IwinMu1KmLek+znJn7jpqE2eVxi7cdHyDvqdxFTb7RAcBkwzup+dHrRzkGzhN8RqxyVAotC0KmepZCllO8inKPj7SFqVCDUQbC466671p3bqPHF4APtUt6za+DQJ0ELD00eN/1BKxYHvbQR0cSRPDFbnWVgwBGFUww0YhnQpGCwSfnyQHuMiduwmfXYDnK/c/C00PKgTSbflYRo3LNs7RZ1AbZR48HZsH36059emb/GcyvtM0AsCb64D96TCgiG5VuqH8RHuFfSNBmW1lq5htaKh0kFX9FPoaeFmRjtPKaAXQr5ty4KvTDNQ3sHbX62BOop/qbo6xF3n332Gfh+IVRFo3+aOr1IbQqCTQ9NAhWuu3N79rGcwJcVmsWjBN4FE8xopTIZy5a/ksuNUdJbKQ6TK/4Noq1wt0h8HzHRZCyBRiB/+MVEWwvh/rBAXwb/pUwsobXsgQkd3KVEs0ommhAU77fffq0Lvcg3/wZ6WYZ9N1341TOfX98MDu9PN+EXi9Y/bqcl1vwyYAoi0BoBazDsJ4PC5P/9mZ+J1tJXQtMTMO2Avvfj78o0hqZPPEvBOg3FvOwjlMUc79A0t3o2gK7Stlmpng38xksgxD7yyCMHymiDpJ7NWIVYo+1SLjg607g17aueCelGS2iEWLbyYJ2P+SYY4Y7mKLY4QJ2Wl5lzaz2YttwAF+uczRSLOUcdyJN3MutgmiFVvtaBnTgrE1L0+O14Hcq3NlieOO1Jb7QZ5Lo8NpM7aTIzvc8mR+oymhCsR/toWnQ9M1ftmVlZzzrRdf7mPLiOm/M17a2eDUjruHHHJnZ6tEHxHhPy90xQFKO1vm+DzDpPmwjpmfZZz1aXq895eWzVrIG8zWFyzwYNPRN6DFzzE5Tf02BrA1m/1DONj54N3qrrNgjo2QClZ6bs9fVF2TFBU/2Mk/yGTAu4ZxoKdRqRF/u2+EHv/e9/f33dBNhD0dhAsY6bp2UC16H3TnKRdsUGrMU8bVA7SZJr4h6bjKiZld6Laej2zIy4d8QRRzTyMK3hOo34rk3bt2caJY33rcYF2gsvI22bCXV75oeyZ1o2Q4tDfTYBSH0vaZgwrGcTQUPvW8aLJsSqOTT1q02Tq44DKxN49UwjrmfWFn3nTbDUo56YFlUvfgfMf9rc0JkwtGfaxHW5Hv/4x/flHeuM1x36YKVgJo91OrE94ptjvjerembmx3Ucvnf0q0xIVkqutXMnn3xynac/A1vTqF4xD0ZiH/3+jb3nnnx939+/nXvTivcuaoTuOyqxt6cgAiKwmASanLlPo/XFjAozLcy4sDw32lnRMSlmPahZx4DPmziTFa9h15870kQjwTqDMdpI+/hVwt8RfsbQMIgBzbeSs/8YZ5z9qJHVpJKOijlq3jwPmiNNpmjRYbaXIabv57RdfgLTmEZSD9E+apq5jU6Sl5/kaE/IzHDUNqadQjsVTRw0VE0wX2mh4lPEhN3FWXVWbfRVSJsWJmFmG79aMdAeuH/EeL6tfTTSMDfy8KQnPanyl2JCllobza/lpuFo8tI2o8UxbOGZ3IwmanyhWeDaQGiOYW6Ldixte36fl2MZt/inRIuhycSGb8SznvWskR+dOpY7t/ab48ppfm7aLdolNsgaSAZz/ja1qAcyWPATUeMLTfYYqA/0e9AMjYv2xDj4KIpmyjh6dzMwNL7iwj7xvtXaj30WNGzQ9GERn2FWF5iNot3j/UO0a3G4Tr8SDea1FqLZvWt8YTKHmR79WtoKtLdjwHweU0GbvKjaahzE099EOxnzR9pdtN48RFN7PzerLe1R7HdE1yjkyWrVz3nOc/qyL1mG9EWwg09/+tP1QjQ8Ly5WqDtoMPPNoT1FkxttsFkvvsG3rRRYNXqlgObXwbba40Pu0S8O+vwFN6eTzzW/X0sYlsbUcQnfjR5JBBaeQJPgC0GLO4wc9yFZsZEPEw6SUTOOQh8GM5hhsGoYgzo39UEFG0elCKUYJMZAOVDnRwU+OqOM+zF+vo9pB8sV0wlHEMdKWvjNoZx8/Fk9CMETHyc6AtGUKU9rnONov4+wgkEt6vp04HyLsC0OGOjIYJaZrwRVEnxN6yR6nGdR3PkSQFCM2Rsq/rkJzDSCL54CX004iC2t4tjUQZvv03crt+h7hJLRDnnAFwntBaaADP5zYQ1tF6ts4l/N/X35vfkWARsDkDwwicCABvOMtoM7ifZ03cQE/yi0V3FJ+3xwgHNj2nHCsAmDONglbpxUQdiHj6vobwVBGt8NuNts/1hmvaS/qAHhBhNADPKjcHCS58GclkVfEM7mAWEn38QmAWwef5TjJkfXfHe32GKLUZJYc3Go5/774eFd8EWfgFWwcbZNwLwPv0al8Na3vrXvNAIChKe0RQhI3ve+91U+mboiAIt9Ii847QN9PuoJ3zpM6xD4mVZPJRhDAEig74YQkH6bC8s9jbWyZdI4mofSt2ZhA8wS3XdkzgKOUQiOb0n+8rDZZpvVp0oLRdUXW9zBvJF36oG2L5+Q5l0j/KT/zsQS/WWfuGMMwbfCNKoGJsIx8+V3wPeafn2cbKdvlefjZZjFlvdWCv6bL12L51z4lTKzxy9e+DvB1773WzKzx0VVVVO5u0lApo7dfC+xVPM0dbQZe6ZpB/5Qi540oCaNqnUpoLbv+Zngqo6CejPnbVaqUkmuL4Qd0zjoWYeovh+17VECaXqevrVBaM8cCves0zBKEhPFsRUlB/L1/IdtbeZtID+bsRpIy3ySDcRbayeW0dSR90r9wBTEBgX1K3VTR67ZbHd9fpIdTCRKddAELJMkN9U9XTd1NKfARVaYnGBKVDILdLbDTJQiNNKxTn8xH9KygchU5uIxL983bZPKTNPLmpuPYPZtgr2qTDYgrcw7/V5M82xgUZeXfkVTMEF/HY+8eM48HHLIIX1xvEy0hZjCdD1Ma+oYn6/pt+lM2K5k6kh6JoStTHHjfb5vEysxy6n2qUfUT0/bt7Rf5rttqrSX+ebcfYFp6fROPPHEPnNn2hZz3F7EQN/FfOLV3DGj9kBa/h7Ymg9Bv7Sq22iuS9viwSY2e7hciWWO+/T7zIl/50w3vfzz2pp2Vh8jjnH5gfuCWBciO67xG10pUEf8vnmZJ5u2V50neWPWOCxgGm/C3d5JJ53Us0minmlMVfdjvoirgGjqaJPoVVJsTUDYl49NCPRskm9YVq1es8nsvvyds5dx1MyazB6/elF7LlpGLcss4/XrthktBREQgeUmYA1K8QGbzhcjj3gyzgTFW1hdcdLASmCs/JKHCy+8sJqd8fNx1s5XIGKpZJxBlwIz4mh+obFFwNlmHpg9RIMrBrQlci0yZh5xKI3po/nkidFb229yol/KgGdDy+Lwww8vauKwalEeck2K/LqOF48A79QdsaKVFWdh49NQd6cJpRlffo/R3GGa9JflXsyFrJM98DhoVaCdgzN23kWTNpebogwkEE7QrrP4ANqnHliIIK5WS73ADBETQF8sxONOusUhdNQsyrVH0BpCkweTImbIY3vtGrqeN7PrTSHXIizNfuOwGAfMeWDFulmY5uX5dOkYbU+0taYNmCuxUnIpfOADH+jTgCjFGfUcpr6lbxGaHMOcNzelj0Ya2oY4K6fOf+xjHxt5AZCmNLt4HkfdMdDvYeU9X2wIzVxM1po05ui3RK3vaA6Gdmg0jWXV0Gm/GbGsk+6XNNdJC2f2Z555ZqWhU9JsRbufbxOaPmgF2eRqn7bcpOVZtPvQ1IyB3xffCSwlaGf5huQLumHNwGI49CfQoEXTsBTQqPIwqiaSx59ky3cvtk8sYIBZ47CAZhv1gPaRfhKaXJzj+4T2cAz+3UGzi0WBzBdnfZlVrjH95Ns2jxC19Dw/rF1YsXec4Jpf0exxc1PU23ZLrixRsMqhIAKtESjNJk7reLu1wimhioA1ksXZATQj2g44ErbmcuAPZ5htB/P10ZdPdAhtg6GedfDq67aKZ2P2OJa2D10Pzbg8+CyqdfL6Lpn/nZ59MOv04zObcGGoc+a+hMY4sI94nZ+ZQvVwrG+dkJ4NmHsmnOvh8NIEfSPNPNkgtU7Ly44W2FoPOLJ3Hr5F+2CWAYfmnlfctqGZgpNZT/PLX/5y32NEjS/qLE7WJw0lDUI0I1cjdFnji9lyfx++pX4x0x4DDusPPfTQSmOD37rHXakdNfPuPqfC3IfDaxMkVFqz+Uw11810o5rdjvmPu28DpD5n5DboHjkJM0Hs4RTZn5FtbMvzhNBOjHHNlCmPUh2jGWam931xuc+EH8X4XToZHdO34XCbb5yZuA2wcI6jaHw5HxaM8Pvi1kxoPcrEWzQWbKA9kL6tKjhRmjYQHkiLMtM2oRW5TAGn4vF9xH0WBhrWvqMtH/tL/KbQwowBbTub8OvLg2/IagZb2bsuT9T4ysuExYBNBvT4zkUu+T4acW95y1t6Zj6dJ7GUx7bCbx8Pxgox0J9v0vxydtQtFhGh7xkDWnceJ78W47W1H62PVuqD8z2kzxItPigrFitotnqIGl9ohcVgfuEGNFNZmMWE7DOvPybEr9k642nGc6759eLPXN/bcNV0C5FFRl3Zn/1SUV15UpVjLgRYQcV/eL6d5gc4l0KvsUzM78PAO+Jd2azNTEjkK72Ql/nnajUvcyjZ10Hmg0PnPgbzg1M/N53pSQQ7CB/4sJM+H/IY+EA2mR+axkGM2sq+zebUz2O+c6ZKszR4+eAHPzhVmot+M/XHtFBqxt6esUWQOqtQGpyT57Sd79g2k0e+wmgUfJEfpmkl4e8oz50LoUnPnMqOcmvrcboq+KIOwSX/w8RiWDBtuvqeYe0KZj+sZBjT33PPPftMvc3PT991j8tKkqwIZTPew4pSvMYAOZpnMjhuMqfKE8BkJjcvNk2BPFrfcb6iFauzNQUEcvlglxW/uh7iynr8jtsICC7ib8PfPdtxBF+sqtkkZDHNr4mLimmRaV0P1E++e5O0hbz7+Iz5PgPUZQkIj/Pn82MEWqbZ0/iorEAXJ18QdDS5pmDyJP9GHnXUUQN9r8bMWr5gvsbq5x4m+PJsWe0RlxS+8qszyre0SUx25t9MT2dZto985CNrfjDIhZ2m5VdfhxkC0pLAyPnxHeA7woQx9Yrz3Jen2zY/+uKxzWRiNw/072zRlKp8+TeH30jJLUMUfPF9zQP3MDbw5/ct/S2+67SVswi5AJp8MbecJjB6uu7/PGFMk1Tn7pXgq3OvZLELZE4CB370/CgVukMAXwbeIMctfqna0CrJn9ScLw/kZ+rmebSpjrHLj8+CT5Q88NHZZZdd6ngIv6iv4wZzlFylgY8RBG55MDXnHixjeZiJbDMwQxXzoEzTBGbnY3nZ/6d/+qdpklz4e9Hiy5n4MZo0swh02Er+bMiXgeCkAU3cWF8Q0OYhF3yRJxpJtopTHnXo8XHHHTfADR8Zq+WPJw7uEfB2JcDV65Nv0eIcFhCWxY61mWkNRDdTrl4+A8w9DEhL7fsrXvGKgXJ4ecyxftVhH2eg8upXv7pOjzY21ywcKHA48Z73vKe+18uwkh+zONjlHjOvDykO7uZ5mBP2wUgdO8Nki/Mwk9HWSmcOqytff562b8cRfFEY6nJJSEW9w6/UuAHNklJ6tCOTtr1mulcz9OeMWzMBHbeYnYzPZEUc9Mdn5BtA/68poPUWtQu5l9/LsIAmasyDffp3fD/nHczcri5LSfCFRvzf/M3fVMJ1NB49mPlnj3YLIXv+LPHYHN8X21BPZ9G3ZtZYPz/92xjw9RUnDWK9QCCIP62megdDJtbZ4rty0gm1WJ5h+2YGXT8H3//4/cIflpk9Ngo7mag3tynF5JkQ8vpgjvCLcT7+8Y/3TcJ7fGdAv7pN/19MAuTCZ/KyVSeL5dNJs4EVBBFok0DeCeUHiNlCmz/0Nsu7FtMaNtCxJYtbR2KrxNUfC/8I0JFvK9BpiR8k8mhyhswMT5y1IS4dt3E+xNGxa5NWjK2WV2nM+PO+/e1vb+txq3Ryh85RmwYBHwMHzKVwZE4HBeEjDv4R/MGeAQQdfWbs6BSUTJ5WMqNq9YE6mNgJJ5wwUG/9fTKImkX43Oc+15jnJMJT6jszf15u32LKm4eS4Iv4zH6i/VcSmsQ0uE5diwI27ufYljmPUee631XBF7xiu8XAgLZsWPjiF7/Y9y6pLzGw8Ec0DUNbg995bjoZ72Hm2xf/8PqRb9EAsVU6+wYQMQ3fR8jh+TNIYjA0TsgXQ6GtjkwwJ+F9HnjggZUJEibreX3DifVKIQ7Wzf/jStFX9TraOfF9oJXRZkA7KApTyWtcwRfl4T2VTHdJGxPDOPgcVn7z+9bngN2fHefqw0xeh6XJNSakPK3SlsHwMoSSti3Py3sY5tybSRfMfiObUYSB5lerEjbH+9hHy4W6Nc8QBS+0EQTq3fHHH9/D5YqXkYUzsHzIA5MzCMCGmfMxgbCMgcnUaGKO2V8Mj3vc42p+mNuXAt8StIhLVh7Oni3fCPqivCP6NbjmwJx/VM3gUt5+jj6Pvz/6taQbA9YmsSxxH8Em9bkU+F7HuCUtMr+P/lJJGOX3880iLyYkp7UewGzU0/UtTvlHbW+9zGtpK8HXWnrbM35WhCbe4PgP0Lf4FVk2HwozxjmT5DE9iLM2/n58ixlN2/b3fDDQHPA8fFvSlprkoc2Ja1/amLqQZ1MoCTQQBqH9hTr2SoFZcn8Gtgy0Sqs30gngN4GPiElMhoaVg497LAP7DJzjQDq/XjqmLkTBQIyzljW+MGO9853vPMDY+VDHclPXYe9rpWvUV9LzVYQ8n3zL4IzBCMKs/A//HAxcmMnew/zNbbXVVsXyo4FL3cxDk+DLy8DKewhYzUlwLYygTT/33HOrDlyps0vnb7VNZmP97pLGF/xdM4uBwCj1CQG6vw+2CNhjwFSQySd+u/i+GrXzS+d72KpnniflbQoI5VxbkXYIIdW4Ic7UkyeCsBhgVPK75+VjO6yMMS2E1/RL2v7exTym3aedZ3IlPh91BbOZNs2u3vnOd/blMYngi2dl0oXBbCyv72P2hGkuqyfnAYEWpkO5tpHf+9SnPnXq/mMuNPa0fUv7tQwhukDwZ6Mdpt/TFOif5GZu/DZGnbDGF1sUmni+1FUmWkdth5rKN8p5Ji/Jz/Om3Uf72BYKqc9x7cEPfnCxDsY80G6KvhQ9TbYILYb1L2M6i7SP0Ck+Z2wDGDf4NfqZK2nz0b/A7K+04rmn07SlHtEP4r0hfKPPg0Cd1XrRJNx///2LPsRgTZvobQjfoK9+9asDrwANZP9OxTKgBV/qF3kCCPZjfCaThwXauhi/aZ9y7r333pUvML6ZK7HN8yxp2I/jUzNPby0cS/C1Ft7yjJ6RjyKdHGZMcX7Z9MP289h2M2vHjNQsNItm9JgLnSyaFgz2+IgzWPd3MWzLzCCzY7xbTOimnZEAILNkeZ7H2yxcGyF3pM0AfqWAZkReHo7pIDIAZICPSQllRGWY+ko+zFxHc0lP4+53v3ujH4yVyjLJdWaxPO9ZbZkhXyuBTjP+KzCVQBsudqCH8aVjhrbMIYccMtKS3pEngw3MLvhtrjSYH1aGca/lwgQvUy74GleImpeDNgTfHqsduiz4QpsHv1ujCgfzRSjQ/GwrMDilM8+33Os/gnHMXxhw4LC4SYMDIZtrjeIvhcmISUJcHIdJmJIm7tlnn91DCJvXNz9GSLLIgQUoEGDznRk2ScU3ByEfg5wvfOELUz8ybZgzjIPeSRJGyFQSwJA+dQuNG0yeEEIgiC8JTYiL77Bhpnnjlm2YQ38mDpYhYLrr79G3r3/96xsfbcOGDX1OvekDvepVrxpbsIovJ88v39Im0AccZWKxsaArXIjOzPP8/Rh/XuMI4dCYL5ncspDQMoY4jnPBDhO93rbTJlNfRg0IklhsqVQn/Z1Mui31T5nwIT0UMIa1ibzXKPzKBUV8V20F1Op3gFY1Qq/cjQ/fw5VC3qca9VlXcnkQ8y21aZN+f2O6y7wvwdcyv90ZPxsDt9h4jPqjJt6sTIVm/MgLl3yT8+JR3xVCsHFnIEqQUCHPtb4mXZkpT58ZHH8eZodGnY3DdIfn83un3TJj2uYsfP6c8ZjOWzTZZJDBamx8MBHewJaBDLNYCDoYMCPsw78BquUINJscEjsHBi9rJeA3xgf7/vzjbBksDFslq8QRvzjT5DlO+WLcJsfG3knDXx4dVuoYZr3UIQaqMY1h+5hG4gh41N9hiU2b57os+Br3OaMrATQPhs1Qj5t2jI/mDhoAo7RnaHvwzqkTrJR21VVXxaTG2meShdl9BDrDBlhcw5dXqR7i7H6Rg7MsPVvTOdr2aQO/d7QqyGNawRdloe6gZYT/yHH6icTl/eO/ru36zQD2+c9/fnEScBJ/n9Myn8X9ub/T/fbbrzEbBABRM5gJmEl9A2Eqt1KfgjaLfgnC67YDE/BNvw9+U03uL1YqB1rNCA69v8W3Pl/tcKU0FuX6QQcdVDNkspc2wTWB0aSaxtSY9OifTtPnoW1A44tvTh4wXUW5gjjU65UCAi0mLnlmvncxRO3lpjqFufwoAdNt/KU1pRPPM5lB/72kqVbKi3LzzDGNvfbaqxRV5wKBjdg3aAoiIAIiMFMCb3rTm5I5Kq7zsBXHkgnVkmmW1Ocm2bHOcTJNwmQd7WSOJZPN0I2cjAkB0uGHH55sVnnke4ZFNI2IZI71h0Vp7Zp1IpKpRqdpOJqGRTLNvmKZeDdmAlq8ppPLR8CW507m3ySZlmMy4cPAA9pgJVG/TYs02QCy+rPBQLKOZrIOZP1nJkPJBhoD96/WCfP7kswcs8retF+TmW2sVlGmztc60ck0mqp0TNidzExv6jSnTcBWlE2mmZVe8pKXJOt0T5vcyPfbimyJd2uTKvU9Zp6cbFCaTFOqPqed0QmYRk468sgjk2liJTOlHv3GFWLyjkyInkwzMJmpY/VngtXqPfH9N39QybT40q677ppMgDGX9sM0dZMJeaqS8w01v5jJTKxWeJLuXz799NMrhpTUtAaTOXRPtNMxmDAnmVZ7Mg2Z6jT8TaieTGiWzMF7jDrWPgxNaJlMCLHifTYhkWiPTRA59e/VrE+qctMHzINpKSXTOkpmMpxfGuvYhPLJVgat6ohpK45176JENtP5ZAKuql01lwbJfDQm04ZKz3ve85I5c08muJz6UWi3TcO5+rMFe1ZMj76ECc8T/V3Tbko2gV68h++iCaySTfZXz1CMNMZJ2isTQiXz+VW8i9+K+TQtXstPmpJIMi2sBF9zR1BdNi26qn9twq5kWtXVuIXv1zgh/tb9PvOpnGwCww+1LREIQjDtioAIiMDMCOA0Ml82eFznx7MqHLb1aElNYnLGjAuz2pOsXjXN87hZEM46pwlRvd2+EdXsEWYoCiKwDASWSeMLTQM0DvidllbmXIb3Nc4z4BfK2yy2Nokxzu2Ku0YJoMUezUiXqd6gJYc2Cs7ITchQfMNofNNvwYQZ/01t+t/Fz6BrCcXfZml/D/NFieXItIG+pbeLMR/MwLA2UBidAGZ+7uAddtNo8A7LFY1wNJvwV4ipoQm9KzN76gTuWVi4BJ+OaBKOElj1ehqNtFIerALapK2FD6/VDvyOY31nHKKwMgFpfFmtURABEZgPAWYYmVn0gHaI+atKZnLop1Z1ax/ZdM455yTz4VD92Uc/mbp39UfBmKVhdpg/ZmoovwmOkqlvr0q5mUEyX0pT8XvlK1+ZzFSmr/w2oExmktB3TgcisIgElknjC/7m/6ma1UZ7xnynLOIrabXMaJiYP5dqxhwN3i5pG7b6oEqsNQJoGdnAtUrPBrbphz/8YTKn3a2l3/WE6NOgFTmrfgvpmzlapeVCO2VCjqrvZGaVVb+JvhN/aH2h6ddGsEnVhMaiB1s1L6HFbP7j/JS2IjA2AbT8zI1IslVP63sZr9jCI1Xfvz455x0TUFb5o71JQHOW7x8ajgrDCUjwNZyProqACLRIALNE1JXN3r9O9c1vfnN66UtfWh9rZ74E+LBjKuoBtWsGAjYj7Ke0FYGFJYAJ3o9+9KOq/LawSrJFDBb2WSg4HXDMJdoaMC40DCs8Zk6mOZBMU0BCr0V/mXMo//e+972EqRpmcaYllE455ZRkC4zMIWdlMUsC5ocrmVP+KgtM4z7zmc8kc3I+yyyV9hohgJAcYbkHXELYYg1+uCpbs/RI733ve+u8za9qn1JBfUE7AwQk+BpAohMiIAKzJIBvD3yImDPwKhv8TzAwXbdu3SyzVdoNBJiNZRDNYJqBgC0WMFdfPQ3F0mkREAEREAERaI05SgGWAAAlWklEQVQAWhr4ocN/JcEWfkn4HlVYfAIIMs1sLqEBw2THtL5jF5+InqBNAghWbWX3ZC5Rqvq1mn4kbXGXymeda6HZwlqV1jP9d4WVCUjwtTIjxRABEWiZAM5PEX65Y2JbRaqaeW05GyU3IgFmixgA2KqP1Yd9xNsUTQREQAREQAQ6TyAXeuFyAUHJrMz9Og9EBRQBEVg4AljNMF5iYSvCtttuW5kVSwN89FcpwdforBRTBESgRQK25HBl9miuCKtUWW2NVX4UREAEREAEREAERKANAhdccEF6+MMfXml64fMJ7Y24wnQbeSgNERABEZg1gRe96EWJiWoCq7HiqmSclexnXb5FSH91PDIvAhmVUQREYKYE8Ktxwgkn1H4YbIWSZCsjzjRPJS4CIiACIiACIrB2COBeAb9e+IDCTEhCr7Xz7vWkIrAsBN71rnfVQq873vGO9aIuy/J883oOaXzNi7TyEQERKBL4xje+kViB54orrqhWJzz++ONlblckpZMiIAIiIAIiIAIiIAIiIAJrgQDmjbghwak+vux22mmn9KlPfary87UWnr/tZ5Tgq22iSk8ERGBsApdcckkl/PrBD35Q3XvYYYelt771rdWS22MnphtEQAREQAREQAREQAREQAREYEEJXHbZZZUiwPr166snOOCAA9IHP/jBxKJgCpMRkOBrMm66SwREoGUCrC547LHHpte85jUJ0wRs2XE+qyACIiACIiACIiACIiACIiACa4HA9ddfn7beeuv085//PG2zzTaVb8KnPOUpa+HRZ/qM8vE1U7xKXAREYFQCm266aWKlpfPPPz89/elPT75U76j3K54IiIAIiIAIiIAIiIAIiIAILDqBO9/5zpWZIwt0SOjVztuUxlc7HJWKCIiACIiACIiACIiACIiACIiACIiACIhAxwhI46tjL0TFEQEREAEREAEREAEREAEREAEREAEREAERaIeABF/tcFQqIiACIiACIiACIiACIiACIiACIiACIiACHSMgwVfHXoiKIwIiIAIiIAIiIAIiIAIiIAIiIAIiIAIi0A4BCb7a4ahUREAEREAEREAEREAEREAEREAEREAEREAEOkZAgq+OvRAVRwREQAREQAREQAREQAREQAREQAREQAREoB0CEny1w1GpiIAIiIAIiIAIiIAIiIAIiIAIiIAIiIAIdIyABF8deyEqjgiIgAiIgAiIgAiIgAiIgAiIgAiIgAiIQDsEJPhqh6NSEQEREAEREAEREAEREAEREAEREAEREAER6BgBCb469kJUHBEQAREQAREQAREQAREQAREQAREQAREQgXYISPDVDkelIgIiIAIiIAIiIAIiIAIiIAIiIAIiIAIi0DECEnx17IWoOCIgAiIgAiIgAiIgAiIgAiIgAiIgAiIgAu0QkOCrHY5KRQREQAREQAREQAREQAREQAREQAREQAREoGMEJPjq2AtRcURABERABERABERABERABERABERABERABNohIMFXOxyVigiIgAiIgAiIgAiIgAiIgAiIgAiIgAiIQMcISPDVsRei4oiACIiACIiACIiACIiACIiACIiACIiACLRDQIKvdjgqFREQAREQAREQAREQAREQAREQAREQAREQgY4RkOCrYy9ExREBERABERABERABERABERABERABERABEWiHgARf7XBUKiIgAiIgAiIgAiIgAiIgAiIgAiIgAiIgAh0jIMFXx16IiiMCIiACIiACIiACIiACIiACIiACIiACItAOAQm+2uGoVERABERABERABERABERABERABERABERABDpGQIKvjr0QFUcEREAEREAEREAEREAEREAEREAEREAERKAdAhJ8tcNRqYiACIiACIiACIiACIiACIiACIiACIiACHSMgARfHXshKo4IiIAIiIAIiIAIiIAIiIAIiIAIiIAIiEA7BCT4aoejUhEBERABERABERABERABERABERABERABEegYAQm+OvZCVBwREAEREAEREAEREAEREAEREAEREAEREIF2CEjw1Q5HpSICIiACIiACIiACIiACIiACIiACIiACItAxAhJ8deyFqDgiIAIiIAIiIAIiIAIiIAIiIAIiIAIiIALtEJDgqx2OSkUEREAEREAEREAEREAEREAEREAEREAERKBjBCT46tgLUXFEQAREQAREQAREQAREQAREQAREQAREQATaISDBVzsclYoIiIAIiIAIiIAIiIAIiIAIiIAIiIAIiEDHCEjw1bEXouKIgAiIgAiIgAiIgAiIgAiIgAiIgAiIgAi0Q0CCr3Y4KhUREAEREAEREAEREAEREAEREAEREAEREIGOEZDgq2MvRMURAREQAREQAREQAREQAREQAREQAREQARFoh4AEX+1wVCoiIAIiIAIiIAIiIAIiIAIiIAIiIAIiIAIdIyDBV8deiIojAiIgAiIgAiIgAiIgAiIgAiIgAiIgAiLQDgEJvtrhqFREQAREQAREQAREQAREQAREQAREQAREQAQ6RkCCr469EBVHBERABERABERABERABERABERABERABESgHQISfLXDUamIgAiIgAiIgAiIgAiIgAiIgAiIgAiIgAh0jIAEXx17ISqOCIiACIiACIiACIiACIiACIiACIiACIhAOwQk+GqHo1IRAREQAREQAREQAREQAREQAREQAREQARHoGAEJvjr2QlQcERABERABERABERABERABERABERABERCBdghI8NUOR6UiAiIgAiIgAiIgAiIgAiIgAiIgAiIgAiLQMQISfHXshag4IiACIiACIiACIiACIiACIiACIiACIiAC7RCQ4KsdjkpFBERABERABERABERABERABERABERABESgYwQk+OrYC1FxREAEREAEREAEREAEREAEREAEREAEREAE2iEgwVc7HJWKCIiACIiACIiACIiACIiACIiACIiACIhAxwhI8NWxF6LiiIAIiIAIiIAIiIAIiIAIiIAIiIAIiIAItENAgq92OCoVERABERABERABERABERABERABERABERCBjhGQ4KtjL0TFEQEREAEREAEREAEREAEREAEREAEREAERaIeABF/tcFQqIiACIiACIiACIiACIiACIiACIiACIiACHSMgwVfHXoiKIwIiIAIiIAIiIAIiIAIiIAIiIAIiIAIi0A4BCb7a4ahUREAEREAEREAEREAEREAEREAEREAEREAEOkZAgq+OvRAVRwREQAREQAREQAREQAREQAREQAREQAREoB0CEny1w1GpiIAIiIAIiIAIiIAIiIAIiIAIiIAIiIAIdIyABF8deyEqjgiIgAiIgAiIgAiIgAiIgAiIgAiIgAiIQDsEJPhqh6NSEQEREAEREAEREAEREAEREAEREAEREAER6BgBCb469kJUHBEQAREQAREQAREQAREQAREQAREQAREQgXYISPDVDkelIgIiIAIiIAIiIAIiIAIiIAIiIAIiIAIi0DECEnx17IWoOCIgAiIgAiIgAiIgAiIgAiIgAiIgAiIgAu0QkOCrHY5KRQREQAREQAREQAREQAREQAREQAREQAREoGMEJPjq2AtRcURABERABERABERABERABERABERABERABNohIMFXOxyVigiIgAiIgAiIgAiIgAiIgAiIgAiIgAiIQMcISPDVsRei4oiACIiACIiACIiACIiACIiACIiACIiACLRDQIKvdjgqFREQAREQAREQAREQAREQAREQAREQAREQgY4RkOCrYy9ExREBERABERABERABERABERABERABERABEWiHgARf7XBUKiIgAiIgAiIgAiIgAiIgAiIgAiIgAiIgAh0jIMFXx16IiiMCIiACIiACIiACIiACIiACIiACIiACItAOAQm+2uGoVERABERABERABERABERABERABERABERABDpGQIKvjr0QFUcEREAEREAEREAEREAEREAEREAEREAERKAdAhJ8tcNRqYiACIiACIiACIiACIiACIiACIiACIiACHSMgARfHXshKo4IiIAIiIAIiIAIiIAIiIAIiIAIiIAIiEA7BCT4aoejUhEBERABERABERABERABERABERABERABEegYAQm+OvZCVBwREAEREAEREAEREAEREAEREAEREAEREIF2CEjw1Q5HpSICIiACIiACIiACIiACIiACIiACIiACItAxAhJ8deyFqDgiIAIiIAIiIAIiIAIiIAIiIAIiIAIiIALtEJDgqx2OSkUEREAEREAEREAEREAEREAEREAEREAERKBjBCT46tgLUXFEQAREQAREQAREQAREQAREQAREQAREQATaISDBVzsclYoIiIAIiIAIiIAIiIAIiIAIiIAIiIAIiEDHCEjw1bEXouKIgAiIgAiIgAiIgAiIgAiIgAiIgAiIgAi0Q0CCr3Y4KhUREAEREAEREAEREAEREAEREAEREAEREIGOEZDgq2MvRMURAREQAREQAREQAREQAREQAREQAREQARFoh4AEX+1wVCoiIAIiIAIiIAIiIAIiIAIiIAIiIAIiIAIdIyDBV8deiIojAiIgAiIgAiIgAiIgAiIgAiIgAiIgAiLQDgEJvtrhqFREQAREQAREQAREQAREQAREQAREQAREQAQ6RmDTjpVHxVkiAj/72c/Sv/7rv6Z169alffbZZ4meTI/iBK699tp07rnnVn+//e1vq3d9v/vdL2233XYeRVsRaI3AItc3fidf+MIXahb77rtv2nbbbetj7YiACIiACIiACIiACIiACMyGgARfs+G6plP96U9/mt70pjel97///QlhyIMe9CAJvpasRvCOjzzyyPSRj3wk3XzzzQNPt8cee6SXvexl6dGPfvTAtXmfOOWUU6pyjpvvwQcfnP7qr/5qrNvmmddYBVvwyItU30qor7vuuvSEJzwhnX/++fXl3//9309//dd/XR9PsqP6Ngk13SMCIiACIiACIiACIrDWCEjwtdbe+Ayf95JLLklvfOMb0/HHH59uuOGGGeakpFeTwDvf+c50xBFHVELNpnKcccYZib9nP/vZ6W1ve1vafPPNm6LO9DxCOQRwF1xwwdj5PPGJTxzrnnnmNVbBFjzyItW3JtQvfelL+4ReTfHGOa/6Ng4txRUBERABERABERABEVjLBOTjay2//Zae/cILL6w0F3bYYYd03HHHSejVEtcuJvPmN785vfCFL6yFXhtvvHF65Stfmc4555x05ZVXphNPPDFtv/32ddGpD2h9XX/99fW5ee78y7/8y0RCr3ve855pv/32G6uo88xrrIItcORFq28l1Keddlp6z3veU7o01TnVt6nw6WYREAEREAEREAEREIE1RECCrzX0stt+1P/8z/9MmIPtuOOO6cMf/nC66aab2s5C6XWIwDHHHJP+9m//ti7RpptumjC1+vu///uEX6873elOaf/9909f//rX013vetc63vr169OBBx6YbrnllvrcPHbIj7JNEl784henTTbZZORb55nXyIVa8IiLVt9KuK+44or0jGc8o3RpqnOLXt/++9peuvSa3/3dOGgpPRUb3SwCIiACIiACIiACIiACOQEJvnIiOh6ZwMtf/vL0iU98Im211VaVVs/d7na3ke9VxMUicPLJJ6e/+7u/6ys0ZowlH14IvU466aS00UYb1fG5/x3veEd9PI8dynDeeeeNnRUCvGc+85lj3TfPvMYq2IJGXsT6VkL9rGc9K11++eWlS1OdW+T6dpPJv4/+8o3pmK/+7u+sy+YrEJ8KvG4WAREQAREQAREQARFYSAIb9SwsZMlV6FUngHnbhg0b0l/+5V8mtH+uuuqqysztmmuu6Ssbzu3PPPPMvnM6WBwCN954Y9ppp53Sj3/847rQOObmGCFRU3jUox6VvvSlL9WXb3e726Uf/ehH1cqP9ckZ7dCs7bLLLtVqk2SBv6673OUuI+X2kIc8JD3pSU8aKS6R5pnXyIVa4IiLWN9KuD/4wQ+mQw45pHSpOvehD31oIuf2i17fEHy94JT/8wH59D/eND1oG83BNVYUXRABERABERABERABEZiagJzbT41w7Saw8847J/48bLnllumggw5Kxx57rJ/SdgkIvPvd7+4TevFIOIwfJvQizqGHHton+Pr1r3+dnve856VTTz2VyzMNn/zkJ2uhF77n0Ewcx3RxnMLNM69xyrWocRexvuWsL7roovSiF70oP93KcRfqG+aJm41uCdzKcysRERABERABERABERABEZiUgKZZJyWn+4oEtt122+J5nVxMAldffXU6+uijBwq/9957D5zLTzz2sY9NCENj+OxnP5t++MMfxlOt76MRE8v8ile8YmZCr3nm1TqoDia4iPUtx8hqi095ylPSr371q+rSnnvumR7xiEfk0SY6Xu36hnr4/zv75vR3p99Q+eia6CF0kwiIgAiIgAiIgAiIgAjMmYAEX3MGvuzZraQFtOzPv2zP94EPfKAyYY3PhZnj/e9//3iquI+G1a677jpwDROwWYZPf/rT6eyzz66yYHXGJz/5yTPLbp55zewhOpTwIta3HN8b3vCG9K1vfas6zW/lhBNOaE3wupr1DaHXiSb0OuPim9Nvbkzpnd+4Mf3EHNQriIAIiIAIiIAIiIAIiEDXCUjw1fU3tGDl22yzzRasxCruMAKnnXbawOWHPvShaeONR2s6dtttt4H7P/rRj6brr79+4HxbJ4466qg6KRzy439uVmGeec3qGbqU7iLWt8jvu9/9bop14r3vfW/aZpttYpSp9mPas67bsaBR6OXnEX5dfJUc0zsPbUVABERABERABERABLpLYLTRa3fLr5J1jMCtbnWrjpVIxZmUwLXXXpu+8Y1vDNz+sIc9bOBc04mS4ItFEL785S833TLV+c985jPprLPOqtPAFxkrTyIw+PrXv145oq8vTrkzz7ymLOpC3L6I9S2Cve666yrtwptuuqk6jbnjAQccEKNMtb9a9a0k9OJBHrH9JmnP7eToa6qXqptFQAREQAREQAREQATmQkCCr7lgXjuZzFK7Zu1Q7MaTsiIjK+zlYRw/biXBF+l95zvfyZNt5ThqxJDgL3/5y4QW0ZFHHpke/vCHV6uOvva1r00/+clPps5vnnlNXdgFSGAR61vE+pKXvCRdcMEF1Sl+I+9617vi5an3V6u+uXljfACEXvvtIqFXZKJ9ERABERABERABERCB7hKQ4Ku772YhS7bRRhstZLlV6EECn/vc5wZP2plx/Ljd7W53S5tvvvlAOt/73vcGzk17gvKulO6GDRvS6173unTve9874fTeHZCPm/c88xq3bIsaf9HqW+TMog2YNRLwbfexj30sbbHFFjHKVPurVd9wZI9Prxgk9Io0tC8CIiACIiACIiACIrAIBGbn/GbOT3/uueemww47bM65psrJ99vf/va556sMRWDWBL797W8XsxhH8EUCd7jDHdJvfvObvrRWElD1RR7xINeIGXYbPsb+4R/+IX34wx9OH/nIR9KjHvWoYdEHrs0zr4HMh5xY5HZw0eqbv4YrrrgiPfOZz/TD9PKXvzz9yZ/8SX3cxs5q1LeS0GsvaXq18TqVhgiIgAiIgAiIgAiIwJwJLI3gC9Ol9evXzxlfGljxbu4FUIYiMCMCDOhLYVzBF5ovP/vZz/qSuvzyy9MvfvGLSijWd2HCA377TYKTYUn+93//d9p7770rs7RnP/vZw6LW1+aZV53piDuL3A4uUn2Lr+OQQw5J1GfCgx70oMqsNl6fdn816ltR6GX+vPaXeeO0r1P3i4AIiIAIiIAIiIAIrAKBpRF8rdZqgquV7yrUFWW5hgj0er105ZVXFp94yy23LJ5vOonGVylcc801rQm+1q1bVwmvEGT53/nnn58uvvjiUtZ953BG/pznPCcheHnVq17Vd610MM+8SvkPO7da7dG0+S5affN38IEPfCCdcsop1eHtbne7ysSxbT+H865vjUKv+8unl793bUVABERABERABERABBaLwNIIvv70T/+0GvAygJpnYLCjIALLRgChlK9OF5/tNre5TRq3zjf5OkLjq62w/fbbp0MPPXQguYsuuih9/vOfT/hIwsn9LbfcMhDHT7zmNa9J973vfdN+++3np4rbeeZVLMCQk4vaDi5afeMV/PjHP04vetGL6reByfsOO+xQH7e1M8/6VhJ6sXLj/hJ6tfU6lY4IiIAIiIAIiIAIiMAqEFgawRdO1f/gD/5gFRAqSxFYPgJNZmfjantB5vd+7/eKgBB2zDogNHje855X/X3/+99Phx9+eDrjjDOK2SI0f9rTnpYe/OAHp2222aYYZ9jJeebVVI5FbQcXrb7dfPPN6SlPeUr69a9/Xb2KfffdN2HyOM/Qdn0rCb12uPPG6U+23Thd9sv2JpRubJY9zxOf8hIBERABERABERABEVhDBJZG8LWG3pkeVQRmTqDJzHFc/14UdOONy4vHXnvttTN/jpjBAx/4wPTVr341nXzyyZV2GCaRebjuuusSml/HH398fmms43nmNVbBOhp50erb61//+tqn3F3vetf0/ve/f1XJTlvfSkIvHujCK29Jr/+KJFWr+nKVuQiIgAiIgAiIgAiIwNQEJPiaGqESWBYCv/zlL9MJJ5yQ5m0um/O79a1vXWmPNAmM8vizOL797W9fTHZcM0cSufHGG4tp3epWtyqen/VJtHN22mmntNdee1Xm0Xl+1IEjjzwybbvttvmlsY/nmdfYhevQDYtU377zne+ko48+uqKHhh0rg04iEJ4F/knq2/lX3JLOuPjmWRRHaYqACIiACIiACIiACIhAJwhI8NWJ16BCdIHAueeemw477LAuFCUdcMABrTl+n+SBmnxh3XDDDWMn1yT4Wk1hwX3uc59qFdg999xzYMVJnv3Tn/50euELXzj2s5ZumGdepfwX4dyi1DdMG5/85CfX/u+oI3/2Z3/WKcTj1rd7b2XmjPfYOH3jUml2depFqjAiIAIiIAIiIAIiIAKtEZDgqzWUSkgElofA3e9+99Ye5re//W0xrTvf+c7F8/M6iYDgs5/9bNptt90GnN7jDL8twRfPM8+85sWvzXwWpb695CUvSRdeeGH16DvvvHN64xvf2CaG1tIap75tZLke9AC6AjcNCL92vsvGae/7znY1x623oAQKIiACIiACIiACIiACIjA7Aksj+DrrrLMqZ8OzQ1VOGd8qmEYpiMAyEUAohcnl9ddf3/dYV199dd/xKAdNTuxXW/BF2fn9HnTQQeljH/tY36OwGmTbYR55LWo7uAj17dRTT03HHXdcVS34bXziE5+ofiNt15O20hunvjUJv865/Ja07o4bpcfMWPjV1jMrHREQAREQAREQAREQAREoEVgawdfPfvazhKnavMOmmy4Nwnmj61x+W221VXrAAx6w6uViUM3faoett946XXzxxX3FmETwVbpn8803T7e97W370l6tg6OOOiqdeOKJKZpx0p7MIsw6r0VuB7tc3/7nf/4nPfOZz6yrxCMe8YjKRHbUenLppZfW9/rOmWeemXJNt913371xFVS/b5ztOPWtSfh12nnm/8sWdXzMjrPV/BrnuRRXBERABERABERABERABMYhsDRSm9UaRK9WvuO8ZMUdjcC97nWv9P3vf3+0yGsgFoPyXPD1i1/8ojILHMfxfknw1QVtL3+F97znPdPjHve4dNJJJ/mp9Ktf/apa5ADn5W2GWee1Wu1RG/l2ub5RNxB+ecAUlr9pAtpjrkHm6aB5ePDBB/vh1Ntx61uj8Ov8mxMewPaR8Gvqd6IEREAEREAEREAEREAE5k9gaQRfe+yxR+1weJ4YxxEAzLNcyksEpiWABk4eWPES08Utt9wyv1Q8RoDEapl5YFXFLoX73//+fYIvBHNtC738eWeZ1yK3g12ub6u90qvXnUm249Y3F371zOfXN4PD+9NN+GU///S4naT5Ncl70D0iIAIiIAIiIAIiIAKrR2BpBF8g3GQTdchXryop52UjsP322xcf6ec///nIgq9LLrmkmMZf/MVfFM+v1sn73e9+fVmXhDB9EaY4mHVei9oOrqX6NkX1GfvWSeobwq+D/9fhfRR+ff4CM3u0IOFXhUH/REAEREAEREAEREAEFoTAxgtSThVTBERgzgSe+MQnFnP87ne/WzxfOrlhw4bS6fTnf/7nxfOrdTI31dtuu+1mVpR55jWzh5hBwl2ub7PS/ssxziKfSeubC78eco/+bgLCr5PP/Z0ALC+/jkVABERABERABERABESgiwSWSuOri4BVJhFYVAK77LJL2m233VIu6PrKV75SrYQ4ynOdc845A9HWrVuXdtxxx4Hzq3niRz/6UV/2++67b99xmwfzzKvNcs86rS7Xt6c97WnVb2FSBjjGz38Lhx9+eDrggAP6ksQsse0wTX1z4VfKzB6/eOHvBF/73k9a1m2/L6UnAiIgAiIgAiIgAiLQPgEJvtpnqhRFYGkIPOMZzxgQfK1fv37k52Plujx0TduL8p111ll1MW9zm9tUzu7rEy3vzDOvlos+8+S6Wt9uf/vbpwc96EETP/9d73rXAcHXzjvvPFWaoxZm2vo2TPi15eYbpT2269cIG7VciicCIiACIiACIiACIiAC8yKgHuu8SCsfEVhAAgceeGDafPPN+0rOSo8/+clP+s6VDm655Zb07W9/e+DSIYccMnBuNU9cccUVfSv0vfCFL0xbbLHFTIo0z7xm8gAzTnQt1LcZI+xLvq365sKvaPa4+WYpbbslVxREQAREQAREQAREQAREoNsEJPjq9vtZuNLdeOONA2UunRuIpBOdJHCHO9whPeEJTxgoG+aOKwXiXH755X3R9t9//7loufRlusLBc5/73HTllVdWsR74wAemo48+eoU7Jr88z7wmL+Xq3bkW6ts86bZZ36Lw6zamK37YQzZL9/h9Cb7m+T6VlwiIgAiIgAiIgAiIwGQEJPiajJvuaiBw/fXXD1y54YYbBs7pxOIQOOyww9LGG/c3FZ/61KdWfIDjjz++L85mm22W3vCGN/SdKx0ghEIr7I/+6I+qP/wjuWCqFJ9zl156aXrLW96SjjnmmPStb32rKdrA+Y9+9KPpk5/8ZHUezbaPf/zjiXIOC/PMa1g5lvXaItS3ebLvUn1z4dfr//xWads7Sug1z3qgvERABERABERABERABKYg0FMQgRYJHHvssT2rjn1/97jHPVrMQUmtBoGXvexlfe/UVp/r/cd//EdjUc4+++ye+crqu+fQQw9tjO8XTDuwt+uuu/bdR30yJ/u9m266yaP1bb/zne/0KE+sd2Yy17vsssv64sUDE9D2jjjiiJ4J9Or73v3ud8coxf155lUswBo52eX6NskreNSjHlXXM6+nH/rQh1ZMSvVtRUSKIAIiIAIiIAIiIAIiIAIrEkgrxlAEERiDwAte8IKBAd4mm2zSu/baa8dIRVG7RuC3v/1tz5xx971bhFHXXXfdQFGvvvrq3r3uda++uA9/+MN7v/rVrwbi5ifMJ1jffS4kYMu1Unj2s59dvOe2t71tDwHKf/3Xf9W3IQz7t3/7t94f/uEf1vcgNLMV9uo4w3bmmdewciz7tS7Xt0nYTyr4Un2bhLbuEQEREAEREAEREAEREIF+Av32Sza6VBCBSQmcdtpp6bjjjhu4/eabb074diqZQQ5E1olOErj1rW+dMG9ct25dXb7vfve7aZ999qnMDP3k1772tbT77runH//4x34qPfShD03Ujdvd7nb1uaadn/70p02XUtO1u93tbsV7TCiX3vzmN6ett9463fGOd0ybbrppIu7jH//4ZNpq1T1c+8IXvpDe+ta3FtPIT84zrzzvtXTc5fo2z/eg+jZP2spLBERABERABERABERgWQlI8LWsb3YOz2UaPOmggw5Ke++9d9phhx3Sox/96Ebh1umnn5623HLLZJo/lbN0BCEKi0WAd/zv//7v6T73uU9d8C996UvV8QMe8IC0/fbbpz322COdf/759XXqxOc+97mRhF7cZJpi9b35TtO1pz71qelOd7pTHr3v+JprrkkIYGNAGGsmmemRj3xkPD10f555DS3IGrjY1fo2T/Sqb/OkrbxEQAREQAREQAREQASWlYAEX8v6ZufwXAgScAyOYCNq+DRljQbO17/+9UpzaMOGDU3RdL7DBLbZZpt05plnple/+tVpiy22qEqKJt8PfvCDdPHFF9cl/+M//uP0xS9+MZ166qnp9re/fX1+pR0zQUyPfexjB6JxjmulsO2221Z1cM8990xmtliKUp9j1cBnPOMZaf369enEE0+shLH1xRF25pnXCMVZ+ihdrG+TQC9pO5bO5WmrvuVEdCwCIiACIiACIiACIiAC4xPYCMvH8W/THSIgAmudwFVXXVUJt84777x00UUXVQIuX4nR/H+tKIRq4scqoG9729sSppQE0nrxi1+cbnWrWzXdUp+/5JJL0kknnVSZRZqvsaoMmDNiornddttVGmmY0bUR5plXG+Vd9DS6WN/myVT1bZ60lZcIiIAIiIAIiIAIiMAyEZDga5nepp5FBERABERABERABERABERABERABERABESgJiBTxxqFdkRABERABERABERABERABERABERABERABJaJgARfy/Q29SwiIAIiIAIiIAIiIAIiIAIiIAIiIAIiIAI1AQm+ahTaEQEREAEREAEREAEREAEREAEREAEREAERWCYCEnwt09vUs4iACIiACIiACIiACIiACIiACIiACIiACNQE/j/Q5PfpA0O/mwAAAABJRU5ErkJggg==;" vertex="1" parent="1">
          <mxGeometry x="500" y="565.44" width="540" height="160.13" as="geometry" />
        </mxCell>
      </root>
    </mxGraphModel>
  </diagram>
</mxfile>
